<mxfile host="Electron" agent="Mozilla/5.0 (Windows NT 10.0; Win64; x64) AppleWebKit/537.36 (KHTML, like Gecko) draw.io/24.7.17 Chrome/128.0.6613.36 Electron/32.0.1 Safari/537.36" version="24.7.17">
  <diagram id="C5RBs43oDa-KdzZeNtuy" name="Page-1">
    <mxGraphModel dx="2234" dy="511" grid="1" gridSize="10" guides="1" tooltips="1" connect="1" arrows="1" fold="1" page="1" pageScale="1" pageWidth="1200" pageHeight="1600" math="0" shadow="0">
      <root>
        <mxCell id="WIyWlLk6GJQsqaUBKTNV-0" />
        <mxCell id="WIyWlLk6GJQsqaUBKTNV-1" parent="WIyWlLk6GJQsqaUBKTNV-0" />
        <mxCell id="Skrc7gYkLuCT7zbZgpwp-6" value="" style="edgeStyle=orthogonalEdgeStyle;rounded=0;orthogonalLoop=1;jettySize=auto;html=1;" parent="WIyWlLk6GJQsqaUBKTNV-1" source="Skrc7gYkLuCT7zbZgpwp-0" target="Skrc7gYkLuCT7zbZgpwp-5" edge="1">
          <mxGeometry relative="1" as="geometry" />
        </mxCell>
        <mxCell id="Skrc7gYkLuCT7zbZgpwp-0" value="STAR" style="strokeWidth=2;html=1;shape=mxgraph.flowchart.terminator;whiteSpace=wrap;" parent="WIyWlLk6GJQsqaUBKTNV-1" vertex="1">
          <mxGeometry x="79" y="20" width="100" height="60" as="geometry" />
        </mxCell>
        <mxCell id="Skrc7gYkLuCT7zbZgpwp-76" style="edgeStyle=orthogonalEdgeStyle;rounded=0;orthogonalLoop=1;jettySize=auto;html=1;exitX=0.5;exitY=1;exitDx=0;exitDy=0;" parent="WIyWlLk6GJQsqaUBKTNV-1" source="Skrc7gYkLuCT7zbZgpwp-5" target="Skrc7gYkLuCT7zbZgpwp-68" edge="1">
          <mxGeometry relative="1" as="geometry" />
        </mxCell>
        <mxCell id="Skrc7gYkLuCT7zbZgpwp-5" value="Dictionary&lt;div&gt;menu film dan lisensinya&lt;/div&gt;" style="whiteSpace=wrap;html=1;strokeWidth=2;" parent="WIyWlLk6GJQsqaUBKTNV-1" vertex="1">
          <mxGeometry x="70" y="109" width="120" height="60" as="geometry" />
        </mxCell>
        <mxCell id="Skrc7gYkLuCT7zbZgpwp-12" value="" style="edgeStyle=orthogonalEdgeStyle;rounded=0;orthogonalLoop=1;jettySize=auto;html=1;" parent="WIyWlLk6GJQsqaUBKTNV-1" source="Skrc7gYkLuCT7zbZgpwp-7" target="Skrc7gYkLuCT7zbZgpwp-11" edge="1">
          <mxGeometry relative="1" as="geometry" />
        </mxCell>
        <mxCell id="Skrc7gYkLuCT7zbZgpwp-7" value="INPUT&lt;div&gt;Pilih menu&lt;/div&gt;" style="shape=parallelogram;perimeter=parallelogramPerimeter;whiteSpace=wrap;html=1;fixedSize=1;strokeWidth=2;" parent="WIyWlLk6GJQsqaUBKTNV-1" vertex="1">
          <mxGeometry x="70" y="322" width="120" height="60" as="geometry" />
        </mxCell>
        <mxCell id="Skrc7gYkLuCT7zbZgpwp-51" style="edgeStyle=orthogonalEdgeStyle;rounded=0;orthogonalLoop=1;jettySize=auto;html=1;exitX=1;exitY=0.5;exitDx=0;exitDy=0;" parent="WIyWlLk6GJQsqaUBKTNV-1" source="Skrc7gYkLuCT7zbZgpwp-11" target="Skrc7gYkLuCT7zbZgpwp-17" edge="1">
          <mxGeometry relative="1" as="geometry">
            <Array as="points">
              <mxPoint x="390" y="481" />
              <mxPoint x="390" y="481" />
            </Array>
          </mxGeometry>
        </mxCell>
        <mxCell id="Skrc7gYkLuCT7zbZgpwp-264" value="no" style="edgeLabel;html=1;align=center;verticalAlign=middle;resizable=0;points=[];" parent="Skrc7gYkLuCT7zbZgpwp-51" vertex="1" connectable="0">
          <mxGeometry x="-0.7299" relative="1" as="geometry">
            <mxPoint as="offset" />
          </mxGeometry>
        </mxCell>
        <mxCell id="Skrc7gYkLuCT7zbZgpwp-265" style="edgeStyle=orthogonalEdgeStyle;rounded=0;orthogonalLoop=1;jettySize=auto;html=1;exitX=0.5;exitY=1;exitDx=0;exitDy=0;" parent="WIyWlLk6GJQsqaUBKTNV-1" source="Skrc7gYkLuCT7zbZgpwp-11" target="Skrc7gYkLuCT7zbZgpwp-13" edge="1">
          <mxGeometry relative="1" as="geometry" />
        </mxCell>
        <mxCell id="Skrc7gYkLuCT7zbZgpwp-266" value="yes" style="edgeLabel;html=1;align=center;verticalAlign=middle;resizable=0;points=[];" parent="Skrc7gYkLuCT7zbZgpwp-265" vertex="1" connectable="0">
          <mxGeometry x="-0.2171" y="1" relative="1" as="geometry">
            <mxPoint as="offset" />
          </mxGeometry>
        </mxCell>
        <mxCell id="Skrc7gYkLuCT7zbZgpwp-11" value="menu = 1" style="rhombus;whiteSpace=wrap;html=1;strokeWidth=2;" parent="WIyWlLk6GJQsqaUBKTNV-1" vertex="1">
          <mxGeometry x="90" y="441" width="80" height="80" as="geometry" />
        </mxCell>
        <mxCell id="Skrc7gYkLuCT7zbZgpwp-16" value="" style="edgeStyle=orthogonalEdgeStyle;rounded=0;orthogonalLoop=1;jettySize=auto;html=1;" parent="WIyWlLk6GJQsqaUBKTNV-1" source="Skrc7gYkLuCT7zbZgpwp-13" target="Skrc7gYkLuCT7zbZgpwp-15" edge="1">
          <mxGeometry relative="1" as="geometry" />
        </mxCell>
        <mxCell id="Skrc7gYkLuCT7zbZgpwp-13" value="input username&amp;nbsp;" style="shape=parallelogram;perimeter=parallelogramPerimeter;whiteSpace=wrap;html=1;fixedSize=1;strokeWidth=2;" parent="WIyWlLk6GJQsqaUBKTNV-1" vertex="1">
          <mxGeometry x="70" y="564" width="120" height="60" as="geometry" />
        </mxCell>
        <mxCell id="Skrc7gYkLuCT7zbZgpwp-30" value="" style="edgeStyle=orthogonalEdgeStyle;rounded=0;orthogonalLoop=1;jettySize=auto;html=1;" parent="WIyWlLk6GJQsqaUBKTNV-1" source="Skrc7gYkLuCT7zbZgpwp-15" target="Skrc7gYkLuCT7zbZgpwp-29" edge="1">
          <mxGeometry relative="1" as="geometry" />
        </mxCell>
        <mxCell id="Skrc7gYkLuCT7zbZgpwp-15" value="input password" style="shape=parallelogram;perimeter=parallelogramPerimeter;whiteSpace=wrap;html=1;fixedSize=1;strokeWidth=2;" parent="WIyWlLk6GJQsqaUBKTNV-1" vertex="1">
          <mxGeometry x="70" y="662" width="120" height="60" as="geometry" />
        </mxCell>
        <mxCell id="Skrc7gYkLuCT7zbZgpwp-20" value="" style="edgeStyle=orthogonalEdgeStyle;rounded=0;orthogonalLoop=1;jettySize=auto;html=1;" parent="WIyWlLk6GJQsqaUBKTNV-1" source="Skrc7gYkLuCT7zbZgpwp-17" target="Skrc7gYkLuCT7zbZgpwp-19" edge="1">
          <mxGeometry relative="1" as="geometry" />
        </mxCell>
        <mxCell id="Skrc7gYkLuCT7zbZgpwp-267" value="yes" style="edgeLabel;html=1;align=center;verticalAlign=middle;resizable=0;points=[];" parent="Skrc7gYkLuCT7zbZgpwp-20" vertex="1" connectable="0">
          <mxGeometry x="-0.3968" y="1" relative="1" as="geometry">
            <mxPoint as="offset" />
          </mxGeometry>
        </mxCell>
        <mxCell id="Skrc7gYkLuCT7zbZgpwp-66" value="" style="edgeStyle=orthogonalEdgeStyle;rounded=0;orthogonalLoop=1;jettySize=auto;html=1;" parent="WIyWlLk6GJQsqaUBKTNV-1" source="Skrc7gYkLuCT7zbZgpwp-17" target="Skrc7gYkLuCT7zbZgpwp-65" edge="1">
          <mxGeometry relative="1" as="geometry" />
        </mxCell>
        <mxCell id="Skrc7gYkLuCT7zbZgpwp-268" value="no" style="edgeLabel;html=1;align=center;verticalAlign=middle;resizable=0;points=[];" parent="Skrc7gYkLuCT7zbZgpwp-66" vertex="1" connectable="0">
          <mxGeometry x="-0.2" y="1" relative="1" as="geometry">
            <mxPoint x="83" y="1" as="offset" />
          </mxGeometry>
        </mxCell>
        <mxCell id="Wn0eg4oqcW2VTBxT5pJJ-2" value="" style="edgeStyle=orthogonalEdgeStyle;rounded=0;orthogonalLoop=1;jettySize=auto;html=1;" parent="WIyWlLk6GJQsqaUBKTNV-1" source="Skrc7gYkLuCT7zbZgpwp-17" target="Wn0eg4oqcW2VTBxT5pJJ-1" edge="1">
          <mxGeometry relative="1" as="geometry" />
        </mxCell>
        <mxCell id="Skrc7gYkLuCT7zbZgpwp-17" value="menu = 2" style="rhombus;whiteSpace=wrap;html=1;strokeWidth=2;" parent="WIyWlLk6GJQsqaUBKTNV-1" vertex="1">
          <mxGeometry x="365" y="441" width="80" height="80" as="geometry" />
        </mxCell>
        <mxCell id="Skrc7gYkLuCT7zbZgpwp-22" value="" style="edgeStyle=orthogonalEdgeStyle;rounded=0;orthogonalLoop=1;jettySize=auto;html=1;" parent="WIyWlLk6GJQsqaUBKTNV-1" source="Skrc7gYkLuCT7zbZgpwp-19" target="Skrc7gYkLuCT7zbZgpwp-21" edge="1">
          <mxGeometry relative="1" as="geometry" />
        </mxCell>
        <mxCell id="Skrc7gYkLuCT7zbZgpwp-19" value="input username" style="shape=parallelogram;perimeter=parallelogramPerimeter;whiteSpace=wrap;html=1;fixedSize=1;strokeWidth=2;" parent="WIyWlLk6GJQsqaUBKTNV-1" vertex="1">
          <mxGeometry x="345" y="563" width="120" height="60" as="geometry" />
        </mxCell>
        <mxCell id="Skrc7gYkLuCT7zbZgpwp-56" value="" style="edgeStyle=orthogonalEdgeStyle;rounded=0;orthogonalLoop=1;jettySize=auto;html=1;" parent="WIyWlLk6GJQsqaUBKTNV-1" source="Skrc7gYkLuCT7zbZgpwp-21" target="Skrc7gYkLuCT7zbZgpwp-55" edge="1">
          <mxGeometry relative="1" as="geometry" />
        </mxCell>
        <mxCell id="Skrc7gYkLuCT7zbZgpwp-21" value="INPUT&amp;nbsp;&lt;div&gt;password&lt;/div&gt;" style="shape=parallelogram;perimeter=parallelogramPerimeter;whiteSpace=wrap;html=1;fixedSize=1;strokeWidth=2;" parent="WIyWlLk6GJQsqaUBKTNV-1" vertex="1">
          <mxGeometry x="345" y="664" width="120" height="60" as="geometry" />
        </mxCell>
        <mxCell id="Skrc7gYkLuCT7zbZgpwp-32" value="" style="edgeStyle=orthogonalEdgeStyle;rounded=0;orthogonalLoop=1;jettySize=auto;html=1;" parent="WIyWlLk6GJQsqaUBKTNV-1" source="Skrc7gYkLuCT7zbZgpwp-29" target="Skrc7gYkLuCT7zbZgpwp-31" edge="1">
          <mxGeometry relative="1" as="geometry">
            <Array as="points">
              <mxPoint y="800" />
            </Array>
          </mxGeometry>
        </mxCell>
        <mxCell id="Skrc7gYkLuCT7zbZgpwp-273" value="no" style="edgeLabel;html=1;align=center;verticalAlign=middle;resizable=0;points=[];" parent="Skrc7gYkLuCT7zbZgpwp-32" vertex="1" connectable="0">
          <mxGeometry x="-0.3178" y="-1" relative="1" as="geometry">
            <mxPoint x="23" y="1" as="offset" />
          </mxGeometry>
        </mxCell>
        <mxCell id="Skrc7gYkLuCT7zbZgpwp-34" value="" style="edgeStyle=orthogonalEdgeStyle;rounded=0;orthogonalLoop=1;jettySize=auto;html=1;" parent="WIyWlLk6GJQsqaUBKTNV-1" source="Skrc7gYkLuCT7zbZgpwp-29" target="Skrc7gYkLuCT7zbZgpwp-33" edge="1">
          <mxGeometry relative="1" as="geometry" />
        </mxCell>
        <mxCell id="Skrc7gYkLuCT7zbZgpwp-272" value="yes" style="edgeLabel;html=1;align=center;verticalAlign=middle;resizable=0;points=[];" parent="Skrc7gYkLuCT7zbZgpwp-34" vertex="1" connectable="0">
          <mxGeometry x="-0.3562" y="1" relative="1" as="geometry">
            <mxPoint x="-12" y="1" as="offset" />
          </mxGeometry>
        </mxCell>
        <mxCell id="Skrc7gYkLuCT7zbZgpwp-29" value="username for user in users" style="rhombus;whiteSpace=wrap;html=1;strokeWidth=2;" parent="WIyWlLk6GJQsqaUBKTNV-1" vertex="1">
          <mxGeometry x="80" y="750" width="100" height="100" as="geometry" />
        </mxCell>
        <mxCell id="Skrc7gYkLuCT7zbZgpwp-71" style="edgeStyle=orthogonalEdgeStyle;rounded=0;orthogonalLoop=1;jettySize=auto;html=1;exitX=0.5;exitY=1;exitDx=0;exitDy=0;" parent="WIyWlLk6GJQsqaUBKTNV-1" source="Skrc7gYkLuCT7zbZgpwp-31" target="Skrc7gYkLuCT7zbZgpwp-68" edge="1">
          <mxGeometry relative="1" as="geometry">
            <Array as="points">
              <mxPoint x="3" y="888" />
              <mxPoint y="888" />
              <mxPoint y="950" />
              <mxPoint x="-110" y="950" />
              <mxPoint x="-110" y="271" />
            </Array>
          </mxGeometry>
        </mxCell>
        <mxCell id="Skrc7gYkLuCT7zbZgpwp-31" value="registrasi berhasil, silahlan login" style="shape=parallelogram;perimeter=parallelogramPerimeter;whiteSpace=wrap;html=1;fixedSize=1;strokeWidth=2;" parent="WIyWlLk6GJQsqaUBKTNV-1" vertex="1">
          <mxGeometry x="-60" y="870" width="120" height="60" as="geometry" />
        </mxCell>
        <mxCell id="Skrc7gYkLuCT7zbZgpwp-70" style="edgeStyle=orthogonalEdgeStyle;rounded=0;orthogonalLoop=1;jettySize=auto;html=1;exitX=0.5;exitY=1;exitDx=0;exitDy=0;" parent="WIyWlLk6GJQsqaUBKTNV-1" source="Skrc7gYkLuCT7zbZgpwp-33" target="Skrc7gYkLuCT7zbZgpwp-68" edge="1">
          <mxGeometry relative="1" as="geometry">
            <Array as="points">
              <mxPoint x="241" y="950" />
              <mxPoint x="-110" y="950" />
              <mxPoint x="-110" y="271" />
            </Array>
          </mxGeometry>
        </mxCell>
        <mxCell id="Skrc7gYkLuCT7zbZgpwp-33" value="username sudah terdaftar" style="shape=parallelogram;perimeter=parallelogramPerimeter;whiteSpace=wrap;html=1;fixedSize=1;strokeWidth=2;" parent="WIyWlLk6GJQsqaUBKTNV-1" vertex="1">
          <mxGeometry x="181" y="870" width="120" height="60" as="geometry" />
        </mxCell>
        <mxCell id="Skrc7gYkLuCT7zbZgpwp-58" value="" style="edgeStyle=orthogonalEdgeStyle;rounded=0;orthogonalLoop=1;jettySize=auto;html=1;" parent="WIyWlLk6GJQsqaUBKTNV-1" source="Skrc7gYkLuCT7zbZgpwp-55" target="Skrc7gYkLuCT7zbZgpwp-57" edge="1">
          <mxGeometry relative="1" as="geometry" />
        </mxCell>
        <mxCell id="Skrc7gYkLuCT7zbZgpwp-275" value="no" style="edgeLabel;html=1;align=center;verticalAlign=middle;resizable=0;points=[];" parent="Skrc7gYkLuCT7zbZgpwp-58" vertex="1" connectable="0">
          <mxGeometry x="-0.1818" y="1" relative="1" as="geometry">
            <mxPoint as="offset" />
          </mxGeometry>
        </mxCell>
        <mxCell id="Skrc7gYkLuCT7zbZgpwp-60" value="" style="edgeStyle=orthogonalEdgeStyle;rounded=0;orthogonalLoop=1;jettySize=auto;html=1;" parent="WIyWlLk6GJQsqaUBKTNV-1" source="Skrc7gYkLuCT7zbZgpwp-55" target="Skrc7gYkLuCT7zbZgpwp-59" edge="1">
          <mxGeometry relative="1" as="geometry" />
        </mxCell>
        <mxCell id="Skrc7gYkLuCT7zbZgpwp-274" value="yes" style="edgeLabel;html=1;align=center;verticalAlign=middle;resizable=0;points=[];" parent="Skrc7gYkLuCT7zbZgpwp-60" vertex="1" connectable="0">
          <mxGeometry x="-0.1903" y="2" relative="1" as="geometry">
            <mxPoint as="offset" />
          </mxGeometry>
        </mxCell>
        <mxCell id="Skrc7gYkLuCT7zbZgpwp-55" value="username =&amp;nbsp;&lt;div&gt;&lt;span style=&quot;background-color: initial;&quot;&gt;pegawai&amp;nbsp;&lt;/span&gt;&lt;span style=&quot;background-color: initial;&quot;&gt;and&lt;/span&gt;&lt;div&gt;&lt;div&gt;password = inipegawai&lt;/div&gt;&lt;/div&gt;&lt;/div&gt;" style="rhombus;whiteSpace=wrap;html=1;strokeWidth=2;" parent="WIyWlLk6GJQsqaUBKTNV-1" vertex="1">
          <mxGeometry x="345" y="790" width="120" height="106" as="geometry" />
        </mxCell>
        <mxCell id="Skrc7gYkLuCT7zbZgpwp-62" value="" style="edgeStyle=orthogonalEdgeStyle;rounded=0;orthogonalLoop=1;jettySize=auto;html=1;" parent="WIyWlLk6GJQsqaUBKTNV-1" source="Skrc7gYkLuCT7zbZgpwp-57" target="Skrc7gYkLuCT7zbZgpwp-61" edge="1">
          <mxGeometry relative="1" as="geometry" />
        </mxCell>
        <mxCell id="Skrc7gYkLuCT7zbZgpwp-277" value="no" style="edgeLabel;html=1;align=center;verticalAlign=middle;resizable=0;points=[];" parent="Skrc7gYkLuCT7zbZgpwp-62" vertex="1" connectable="0">
          <mxGeometry x="-0.1688" y="-1" relative="1" as="geometry">
            <mxPoint as="offset" />
          </mxGeometry>
        </mxCell>
        <mxCell id="Skrc7gYkLuCT7zbZgpwp-64" value="" style="edgeStyle=orthogonalEdgeStyle;rounded=0;orthogonalLoop=1;jettySize=auto;html=1;" parent="WIyWlLk6GJQsqaUBKTNV-1" source="Skrc7gYkLuCT7zbZgpwp-57" target="Skrc7gYkLuCT7zbZgpwp-63" edge="1">
          <mxGeometry relative="1" as="geometry" />
        </mxCell>
        <mxCell id="Skrc7gYkLuCT7zbZgpwp-276" value="yes" style="edgeLabel;html=1;align=center;verticalAlign=middle;resizable=0;points=[];" parent="Skrc7gYkLuCT7zbZgpwp-64" vertex="1" connectable="0">
          <mxGeometry x="-0.1329" y="1" relative="1" as="geometry">
            <mxPoint as="offset" />
          </mxGeometry>
        </mxCell>
        <mxCell id="Skrc7gYkLuCT7zbZgpwp-57" value="user" style="rhombus;whiteSpace=wrap;html=1;strokeWidth=2;" parent="WIyWlLk6GJQsqaUBKTNV-1" vertex="1">
          <mxGeometry x="565" y="803" width="80" height="80" as="geometry" />
        </mxCell>
        <mxCell id="Skrc7gYkLuCT7zbZgpwp-84" value="" style="edgeStyle=orthogonalEdgeStyle;rounded=0;orthogonalLoop=1;jettySize=auto;html=1;" parent="WIyWlLk6GJQsqaUBKTNV-1" source="Skrc7gYkLuCT7zbZgpwp-59" target="Skrc7gYkLuCT7zbZgpwp-75" edge="1">
          <mxGeometry relative="1" as="geometry" />
        </mxCell>
        <mxCell id="Skrc7gYkLuCT7zbZgpwp-59" value="role = pegawai" style="whiteSpace=wrap;html=1;strokeWidth=2;" parent="WIyWlLk6GJQsqaUBKTNV-1" vertex="1">
          <mxGeometry x="345" y="960" width="120" height="60" as="geometry" />
        </mxCell>
        <mxCell id="Skrc7gYkLuCT7zbZgpwp-61" value="&lt;div&gt;OUTPUT&lt;/div&gt;usrname atau password salah" style="shape=parallelogram;perimeter=parallelogramPerimeter;whiteSpace=wrap;html=1;fixedSize=1;strokeWidth=2;" parent="WIyWlLk6GJQsqaUBKTNV-1" vertex="1">
          <mxGeometry x="705" y="813" width="120" height="60" as="geometry" />
        </mxCell>
        <mxCell id="Skrc7gYkLuCT7zbZgpwp-83" style="edgeStyle=orthogonalEdgeStyle;rounded=0;orthogonalLoop=1;jettySize=auto;html=1;exitX=0.5;exitY=1;exitDx=0;exitDy=0;" parent="WIyWlLk6GJQsqaUBKTNV-1" source="Skrc7gYkLuCT7zbZgpwp-63" target="Skrc7gYkLuCT7zbZgpwp-75" edge="1">
          <mxGeometry relative="1" as="geometry" />
        </mxCell>
        <mxCell id="Skrc7gYkLuCT7zbZgpwp-63" value="role = pengunjung" style="whiteSpace=wrap;html=1;strokeWidth=2;" parent="WIyWlLk6GJQsqaUBKTNV-1" vertex="1">
          <mxGeometry x="545" y="961" width="120" height="60" as="geometry" />
        </mxCell>
        <mxCell id="Skrc7gYkLuCT7zbZgpwp-69" style="edgeStyle=orthogonalEdgeStyle;rounded=0;orthogonalLoop=1;jettySize=auto;html=1;exitX=1;exitY=0.5;exitDx=0;exitDy=0;entryX=1;entryY=0.5;entryDx=0;entryDy=0;" parent="WIyWlLk6GJQsqaUBKTNV-1" source="Skrc7gYkLuCT7zbZgpwp-65" target="Skrc7gYkLuCT7zbZgpwp-68" edge="1">
          <mxGeometry relative="1" as="geometry">
            <Array as="points">
              <mxPoint x="880" y="481" />
              <mxPoint x="880" y="271" />
            </Array>
          </mxGeometry>
        </mxCell>
        <mxCell id="Skrc7gYkLuCT7zbZgpwp-65" value="OUTPUT&lt;div&gt;pilihan tidak valid&lt;/div&gt;" style="shape=parallelogram;perimeter=parallelogramPerimeter;whiteSpace=wrap;html=1;fixedSize=1;strokeWidth=2;" parent="WIyWlLk6GJQsqaUBKTNV-1" vertex="1">
          <mxGeometry x="665" y="451" width="120" height="60" as="geometry" />
        </mxCell>
        <mxCell id="Skrc7gYkLuCT7zbZgpwp-77" style="edgeStyle=orthogonalEdgeStyle;rounded=0;orthogonalLoop=1;jettySize=auto;html=1;exitX=0.5;exitY=1;exitDx=0;exitDy=0;entryX=0.5;entryY=0;entryDx=0;entryDy=0;" parent="WIyWlLk6GJQsqaUBKTNV-1" source="Skrc7gYkLuCT7zbZgpwp-68" target="Skrc7gYkLuCT7zbZgpwp-7" edge="1">
          <mxGeometry relative="1" as="geometry" />
        </mxCell>
        <mxCell id="Skrc7gYkLuCT7zbZgpwp-68" value="LOOP" style="ellipse;whiteSpace=wrap;html=1;strokeWidth=2;" parent="WIyWlLk6GJQsqaUBKTNV-1" vertex="1">
          <mxGeometry x="90" y="242" width="80" height="58" as="geometry" />
        </mxCell>
        <mxCell id="Skrc7gYkLuCT7zbZgpwp-80" value="" style="edgeStyle=orthogonalEdgeStyle;rounded=0;orthogonalLoop=1;jettySize=auto;html=1;" parent="WIyWlLk6GJQsqaUBKTNV-1" source="Skrc7gYkLuCT7zbZgpwp-75" target="Skrc7gYkLuCT7zbZgpwp-79" edge="1">
          <mxGeometry relative="1" as="geometry" />
        </mxCell>
        <mxCell id="Skrc7gYkLuCT7zbZgpwp-75" value="&lt;b&gt;LOOP&lt;/b&gt;" style="ellipse;whiteSpace=wrap;html=1;" parent="WIyWlLk6GJQsqaUBKTNV-1" vertex="1">
          <mxGeometry x="417" y="1080" width="80" height="60" as="geometry" />
        </mxCell>
        <mxCell id="Skrc7gYkLuCT7zbZgpwp-82" value="" style="edgeStyle=orthogonalEdgeStyle;rounded=0;orthogonalLoop=1;jettySize=auto;html=1;" parent="WIyWlLk6GJQsqaUBKTNV-1" source="Skrc7gYkLuCT7zbZgpwp-79" target="Skrc7gYkLuCT7zbZgpwp-88" edge="1">
          <mxGeometry relative="1" as="geometry">
            <mxPoint x="577" y="1250" as="targetPoint" />
          </mxGeometry>
        </mxCell>
        <mxCell id="Skrc7gYkLuCT7zbZgpwp-279" value="no" style="edgeLabel;html=1;align=center;verticalAlign=middle;resizable=0;points=[];" parent="Skrc7gYkLuCT7zbZgpwp-82" vertex="1" connectable="0">
          <mxGeometry x="-0.6535" y="2" relative="1" as="geometry">
            <mxPoint as="offset" />
          </mxGeometry>
        </mxCell>
        <mxCell id="Skrc7gYkLuCT7zbZgpwp-114" style="edgeStyle=orthogonalEdgeStyle;rounded=0;orthogonalLoop=1;jettySize=auto;html=1;exitX=0;exitY=0.5;exitDx=0;exitDy=0;" parent="WIyWlLk6GJQsqaUBKTNV-1" source="Skrc7gYkLuCT7zbZgpwp-79" target="Skrc7gYkLuCT7zbZgpwp-85" edge="1">
          <mxGeometry relative="1" as="geometry" />
        </mxCell>
        <mxCell id="Skrc7gYkLuCT7zbZgpwp-278" value="yes" style="edgeLabel;html=1;align=center;verticalAlign=middle;resizable=0;points=[];" parent="Skrc7gYkLuCT7zbZgpwp-114" vertex="1" connectable="0">
          <mxGeometry x="-0.5876" y="2" relative="1" as="geometry">
            <mxPoint as="offset" />
          </mxGeometry>
        </mxCell>
        <mxCell id="Skrc7gYkLuCT7zbZgpwp-79" value="role = penjual" style="rhombus;whiteSpace=wrap;html=1;" parent="WIyWlLk6GJQsqaUBKTNV-1" vertex="1">
          <mxGeometry x="417" y="1210" width="80" height="80" as="geometry" />
        </mxCell>
        <mxCell id="Skrc7gYkLuCT7zbZgpwp-90" value="" style="edgeStyle=orthogonalEdgeStyle;rounded=0;orthogonalLoop=1;jettySize=auto;html=1;" parent="WIyWlLk6GJQsqaUBKTNV-1" source="Skrc7gYkLuCT7zbZgpwp-85" target="Skrc7gYkLuCT7zbZgpwp-89" edge="1">
          <mxGeometry relative="1" as="geometry" />
        </mxCell>
        <mxCell id="Skrc7gYkLuCT7zbZgpwp-85" value="OUTPUT&lt;div&gt;1.Tambahkan Menu film&lt;/div&gt;&lt;div&gt;2. Tampilkan menu film&lt;/div&gt;&lt;div&gt;3. Ubah menu film&lt;/div&gt;&lt;div&gt;4. Hapus menu film&lt;/div&gt;&lt;div&gt;5. Keluar&amp;nbsp;&lt;/div&gt;" style="shape=parallelogram;perimeter=parallelogramPerimeter;whiteSpace=wrap;html=1;fixedSize=1;" parent="WIyWlLk6GJQsqaUBKTNV-1" vertex="1">
          <mxGeometry x="190" y="1300" width="200" height="100" as="geometry" />
        </mxCell>
        <mxCell id="Skrc7gYkLuCT7zbZgpwp-94" value="" style="edgeStyle=orthogonalEdgeStyle;rounded=0;orthogonalLoop=1;jettySize=auto;html=1;" parent="WIyWlLk6GJQsqaUBKTNV-1" source="Skrc7gYkLuCT7zbZgpwp-88" target="Skrc7gYkLuCT7zbZgpwp-91" edge="1">
          <mxGeometry relative="1" as="geometry" />
        </mxCell>
        <mxCell id="Skrc7gYkLuCT7zbZgpwp-88" value="OUTPUT&lt;div&gt;1. Tampilkan menu film&lt;/div&gt;&lt;div&gt;2. Pembelian&lt;/div&gt;&lt;div&gt;3. keluar&lt;/div&gt;" style="shape=parallelogram;perimeter=parallelogramPerimeter;whiteSpace=wrap;html=1;fixedSize=1;" parent="WIyWlLk6GJQsqaUBKTNV-1" vertex="1">
          <mxGeometry x="574" y="1300" width="200" height="100" as="geometry" />
        </mxCell>
        <mxCell id="Skrc7gYkLuCT7zbZgpwp-96" value="" style="edgeStyle=orthogonalEdgeStyle;rounded=0;orthogonalLoop=1;jettySize=auto;html=1;" parent="WIyWlLk6GJQsqaUBKTNV-1" source="Skrc7gYkLuCT7zbZgpwp-89" target="Skrc7gYkLuCT7zbZgpwp-95" edge="1">
          <mxGeometry relative="1" as="geometry" />
        </mxCell>
        <mxCell id="Skrc7gYkLuCT7zbZgpwp-89" value="IN{UT&lt;div&gt;Pilih opsi :&lt;/div&gt;" style="shape=parallelogram;perimeter=parallelogramPerimeter;whiteSpace=wrap;html=1;fixedSize=1;" parent="WIyWlLk6GJQsqaUBKTNV-1" vertex="1">
          <mxGeometry x="230" y="1480" width="120" height="60" as="geometry" />
        </mxCell>
        <mxCell id="Skrc7gYkLuCT7zbZgpwp-204" value="" style="edgeStyle=orthogonalEdgeStyle;rounded=0;orthogonalLoop=1;jettySize=auto;html=1;" parent="WIyWlLk6GJQsqaUBKTNV-1" source="Skrc7gYkLuCT7zbZgpwp-91" target="Skrc7gYkLuCT7zbZgpwp-203" edge="1">
          <mxGeometry relative="1" as="geometry" />
        </mxCell>
        <mxCell id="Skrc7gYkLuCT7zbZgpwp-91" value="IN{UT&lt;div&gt;Pilih opsi :&lt;/div&gt;" style="shape=parallelogram;perimeter=parallelogramPerimeter;whiteSpace=wrap;html=1;fixedSize=1;" parent="WIyWlLk6GJQsqaUBKTNV-1" vertex="1">
          <mxGeometry x="614" y="1430" width="120" height="60" as="geometry" />
        </mxCell>
        <mxCell id="Skrc7gYkLuCT7zbZgpwp-98" value="" style="edgeStyle=orthogonalEdgeStyle;rounded=0;orthogonalLoop=1;jettySize=auto;html=1;" parent="WIyWlLk6GJQsqaUBKTNV-1" source="Skrc7gYkLuCT7zbZgpwp-95" target="Skrc7gYkLuCT7zbZgpwp-97" edge="1">
          <mxGeometry relative="1" as="geometry" />
        </mxCell>
        <mxCell id="Skrc7gYkLuCT7zbZgpwp-281" value="no" style="edgeLabel;html=1;align=center;verticalAlign=middle;resizable=0;points=[];" parent="Skrc7gYkLuCT7zbZgpwp-98" vertex="1" connectable="0">
          <mxGeometry x="-0.7599" y="2" relative="1" as="geometry">
            <mxPoint as="offset" />
          </mxGeometry>
        </mxCell>
        <mxCell id="Skrc7gYkLuCT7zbZgpwp-117" value="" style="edgeStyle=orthogonalEdgeStyle;rounded=0;orthogonalLoop=1;jettySize=auto;html=1;" parent="WIyWlLk6GJQsqaUBKTNV-1" source="Skrc7gYkLuCT7zbZgpwp-95" target="Skrc7gYkLuCT7zbZgpwp-107" edge="1">
          <mxGeometry relative="1" as="geometry" />
        </mxCell>
        <mxCell id="Skrc7gYkLuCT7zbZgpwp-280" value="yes" style="edgeLabel;html=1;align=center;verticalAlign=middle;resizable=0;points=[];" parent="Skrc7gYkLuCT7zbZgpwp-117" vertex="1" connectable="0">
          <mxGeometry x="-0.7296" relative="1" as="geometry">
            <mxPoint as="offset" />
          </mxGeometry>
        </mxCell>
        <mxCell id="Skrc7gYkLuCT7zbZgpwp-95" value="opsi = 1" style="rhombus;whiteSpace=wrap;html=1;" parent="WIyWlLk6GJQsqaUBKTNV-1" vertex="1">
          <mxGeometry x="115" y="1471" width="80" height="80" as="geometry" />
        </mxCell>
        <mxCell id="Skrc7gYkLuCT7zbZgpwp-100" value="" style="edgeStyle=orthogonalEdgeStyle;rounded=0;orthogonalLoop=1;jettySize=auto;html=1;" parent="WIyWlLk6GJQsqaUBKTNV-1" source="Skrc7gYkLuCT7zbZgpwp-97" target="Skrc7gYkLuCT7zbZgpwp-99" edge="1">
          <mxGeometry relative="1" as="geometry" />
        </mxCell>
        <mxCell id="Skrc7gYkLuCT7zbZgpwp-283" value="no" style="edgeLabel;html=1;align=center;verticalAlign=middle;resizable=0;points=[];" parent="Skrc7gYkLuCT7zbZgpwp-100" vertex="1" connectable="0">
          <mxGeometry x="-0.3466" relative="1" as="geometry">
            <mxPoint as="offset" />
          </mxGeometry>
        </mxCell>
        <mxCell id="Skrc7gYkLuCT7zbZgpwp-120" value="" style="edgeStyle=orthogonalEdgeStyle;rounded=0;orthogonalLoop=1;jettySize=auto;html=1;" parent="WIyWlLk6GJQsqaUBKTNV-1" source="Skrc7gYkLuCT7zbZgpwp-97" target="Skrc7gYkLuCT7zbZgpwp-119" edge="1">
          <mxGeometry relative="1" as="geometry" />
        </mxCell>
        <mxCell id="Skrc7gYkLuCT7zbZgpwp-282" value="yes" style="edgeLabel;html=1;align=center;verticalAlign=middle;resizable=0;points=[];" parent="Skrc7gYkLuCT7zbZgpwp-120" vertex="1" connectable="0">
          <mxGeometry x="-0.0864" y="-2" relative="1" as="geometry">
            <mxPoint as="offset" />
          </mxGeometry>
        </mxCell>
        <mxCell id="Skrc7gYkLuCT7zbZgpwp-97" value="opsi = 2" style="rhombus;whiteSpace=wrap;html=1;" parent="WIyWlLk6GJQsqaUBKTNV-1" vertex="1">
          <mxGeometry x="115" y="1767" width="80" height="80" as="geometry" />
        </mxCell>
        <mxCell id="Skrc7gYkLuCT7zbZgpwp-102" value="" style="edgeStyle=orthogonalEdgeStyle;rounded=0;orthogonalLoop=1;jettySize=auto;html=1;" parent="WIyWlLk6GJQsqaUBKTNV-1" target="Skrc7gYkLuCT7zbZgpwp-101" edge="1">
          <mxGeometry relative="1" as="geometry">
            <mxPoint x="155" y="2144" as="sourcePoint" />
          </mxGeometry>
        </mxCell>
        <mxCell id="Skrc7gYkLuCT7zbZgpwp-136" value="" style="edgeStyle=orthogonalEdgeStyle;rounded=0;orthogonalLoop=1;jettySize=auto;html=1;" parent="WIyWlLk6GJQsqaUBKTNV-1" source="Skrc7gYkLuCT7zbZgpwp-99" target="Skrc7gYkLuCT7zbZgpwp-131" edge="1">
          <mxGeometry relative="1" as="geometry" />
        </mxCell>
        <mxCell id="Skrc7gYkLuCT7zbZgpwp-284" value="yes" style="edgeLabel;html=1;align=center;verticalAlign=middle;resizable=0;points=[];" parent="Skrc7gYkLuCT7zbZgpwp-136" vertex="1" connectable="0">
          <mxGeometry x="-0.1596" relative="1" as="geometry">
            <mxPoint as="offset" />
          </mxGeometry>
        </mxCell>
        <mxCell id="Skrc7gYkLuCT7zbZgpwp-137" style="edgeStyle=orthogonalEdgeStyle;rounded=0;orthogonalLoop=1;jettySize=auto;html=1;exitX=0.5;exitY=1;exitDx=0;exitDy=0;entryX=0.5;entryY=0;entryDx=0;entryDy=0;" parent="WIyWlLk6GJQsqaUBKTNV-1" source="Skrc7gYkLuCT7zbZgpwp-99" target="Skrc7gYkLuCT7zbZgpwp-101" edge="1">
          <mxGeometry relative="1" as="geometry" />
        </mxCell>
        <mxCell id="Skrc7gYkLuCT7zbZgpwp-285" value="no" style="edgeLabel;html=1;align=center;verticalAlign=middle;resizable=0;points=[];" parent="Skrc7gYkLuCT7zbZgpwp-137" vertex="1" connectable="0">
          <mxGeometry x="-0.801" y="2" relative="1" as="geometry">
            <mxPoint as="offset" />
          </mxGeometry>
        </mxCell>
        <mxCell id="Skrc7gYkLuCT7zbZgpwp-99" value="opsi =3" style="rhombus;whiteSpace=wrap;html=1;" parent="WIyWlLk6GJQsqaUBKTNV-1" vertex="1">
          <mxGeometry x="115" y="1964" width="80" height="80" as="geometry" />
        </mxCell>
        <mxCell id="Skrc7gYkLuCT7zbZgpwp-104" value="" style="edgeStyle=orthogonalEdgeStyle;rounded=0;orthogonalLoop=1;jettySize=auto;html=1;" parent="WIyWlLk6GJQsqaUBKTNV-1" source="Skrc7gYkLuCT7zbZgpwp-101" target="Skrc7gYkLuCT7zbZgpwp-103" edge="1">
          <mxGeometry relative="1" as="geometry" />
        </mxCell>
        <mxCell id="Skrc7gYkLuCT7zbZgpwp-287" value="no" style="edgeLabel;html=1;align=center;verticalAlign=middle;resizable=0;points=[];" parent="Skrc7gYkLuCT7zbZgpwp-104" vertex="1" connectable="0">
          <mxGeometry x="-0.72" y="2" relative="1" as="geometry">
            <mxPoint as="offset" />
          </mxGeometry>
        </mxCell>
        <mxCell id="Skrc7gYkLuCT7zbZgpwp-101" value="opsi = 4" style="rhombus;whiteSpace=wrap;html=1;" parent="WIyWlLk6GJQsqaUBKTNV-1" vertex="1">
          <mxGeometry x="115" y="2373" width="80" height="80" as="geometry" />
        </mxCell>
        <mxCell id="Skrc7gYkLuCT7zbZgpwp-198" value="" style="edgeStyle=orthogonalEdgeStyle;rounded=0;orthogonalLoop=1;jettySize=auto;html=1;" parent="WIyWlLk6GJQsqaUBKTNV-1" source="Skrc7gYkLuCT7zbZgpwp-103" target="Skrc7gYkLuCT7zbZgpwp-197" edge="1">
          <mxGeometry relative="1" as="geometry" />
        </mxCell>
        <mxCell id="Skrc7gYkLuCT7zbZgpwp-300" value="yes" style="edgeLabel;html=1;align=center;verticalAlign=middle;resizable=0;points=[];" parent="Skrc7gYkLuCT7zbZgpwp-198" vertex="1" connectable="0">
          <mxGeometry x="-0.0406" y="-2" relative="1" as="geometry">
            <mxPoint as="offset" />
          </mxGeometry>
        </mxCell>
        <mxCell id="Skrc7gYkLuCT7zbZgpwp-200" value="" style="edgeStyle=orthogonalEdgeStyle;rounded=0;orthogonalLoop=1;jettySize=auto;html=1;" parent="WIyWlLk6GJQsqaUBKTNV-1" source="Skrc7gYkLuCT7zbZgpwp-103" target="Skrc7gYkLuCT7zbZgpwp-199" edge="1">
          <mxGeometry relative="1" as="geometry" />
        </mxCell>
        <mxCell id="Skrc7gYkLuCT7zbZgpwp-301" value="no" style="edgeLabel;html=1;align=center;verticalAlign=middle;resizable=0;points=[];" parent="Skrc7gYkLuCT7zbZgpwp-200" vertex="1" connectable="0">
          <mxGeometry x="0.3894" y="1" relative="1" as="geometry">
            <mxPoint x="26" y="-1" as="offset" />
          </mxGeometry>
        </mxCell>
        <mxCell id="Skrc7gYkLuCT7zbZgpwp-103" value="opsi = 5" style="rhombus;whiteSpace=wrap;html=1;" parent="WIyWlLk6GJQsqaUBKTNV-1" vertex="1">
          <mxGeometry x="115" y="2758" width="80" height="80" as="geometry" />
        </mxCell>
        <mxCell id="Skrc7gYkLuCT7zbZgpwp-105" value="INPUT&lt;div&gt;Film baru&lt;/div&gt;" style="shape=parallelogram;perimeter=parallelogramPerimeter;whiteSpace=wrap;html=1;fixedSize=1;" parent="WIyWlLk6GJQsqaUBKTNV-1" vertex="1">
          <mxGeometry x="-51" y="1481" width="120" height="60" as="geometry" />
        </mxCell>
        <mxCell id="Skrc7gYkLuCT7zbZgpwp-113" value="" style="edgeStyle=orthogonalEdgeStyle;rounded=0;orthogonalLoop=1;jettySize=auto;html=1;" parent="WIyWlLk6GJQsqaUBKTNV-1" source="Skrc7gYkLuCT7zbZgpwp-107" target="Skrc7gYkLuCT7zbZgpwp-112" edge="1">
          <mxGeometry relative="1" as="geometry" />
        </mxCell>
        <mxCell id="Skrc7gYkLuCT7zbZgpwp-107" value="INPUT&lt;div&gt;lama lisensi&lt;/div&gt;" style="shape=parallelogram;perimeter=parallelogramPerimeter;whiteSpace=wrap;html=1;fixedSize=1;" parent="WIyWlLk6GJQsqaUBKTNV-1" vertex="1">
          <mxGeometry x="-181" y="1481" width="120" height="60" as="geometry" />
        </mxCell>
        <mxCell id="Skrc7gYkLuCT7zbZgpwp-116" value="" style="edgeStyle=orthogonalEdgeStyle;rounded=0;orthogonalLoop=1;jettySize=auto;html=1;" parent="WIyWlLk6GJQsqaUBKTNV-1" source="Skrc7gYkLuCT7zbZgpwp-112" target="Skrc7gYkLuCT7zbZgpwp-115" edge="1">
          <mxGeometry relative="1" as="geometry" />
        </mxCell>
        <mxCell id="Skrc7gYkLuCT7zbZgpwp-112" value="Menambahkan film baru beserta Lisensinya ke dalam dictionary Film&amp;nbsp;" style="whiteSpace=wrap;html=1;" parent="WIyWlLk6GJQsqaUBKTNV-1" vertex="1">
          <mxGeometry x="-181" y="1571" width="120" height="60" as="geometry" />
        </mxCell>
        <mxCell id="Skrc7gYkLuCT7zbZgpwp-115" value="OUPUT&lt;div&gt;Film baru beserta durasi lisensinya berhasil ditambahkan&amp;nbsp;&lt;/div&gt;" style="shape=parallelogram;perimeter=parallelogramPerimeter;whiteSpace=wrap;html=1;fixedSize=1;" parent="WIyWlLk6GJQsqaUBKTNV-1" vertex="1">
          <mxGeometry x="-191" y="1661" width="140" height="70" as="geometry" />
        </mxCell>
        <mxCell id="Skrc7gYkLuCT7zbZgpwp-122" value="" style="edgeStyle=orthogonalEdgeStyle;rounded=0;orthogonalLoop=1;jettySize=auto;html=1;" parent="WIyWlLk6GJQsqaUBKTNV-1" source="Skrc7gYkLuCT7zbZgpwp-119" target="Skrc7gYkLuCT7zbZgpwp-121" edge="1">
          <mxGeometry relative="1" as="geometry" />
        </mxCell>
        <mxCell id="Skrc7gYkLuCT7zbZgpwp-288" value="yes" style="edgeLabel;html=1;align=center;verticalAlign=middle;resizable=0;points=[];" parent="Skrc7gYkLuCT7zbZgpwp-122" vertex="1" connectable="0">
          <mxGeometry x="-0.2538" y="-1" relative="1" as="geometry">
            <mxPoint as="offset" />
          </mxGeometry>
        </mxCell>
        <mxCell id="Skrc7gYkLuCT7zbZgpwp-128" value="" style="edgeStyle=orthogonalEdgeStyle;rounded=0;orthogonalLoop=1;jettySize=auto;html=1;" parent="WIyWlLk6GJQsqaUBKTNV-1" source="Skrc7gYkLuCT7zbZgpwp-119" target="Skrc7gYkLuCT7zbZgpwp-127" edge="1">
          <mxGeometry relative="1" as="geometry" />
        </mxCell>
        <mxCell id="Skrc7gYkLuCT7zbZgpwp-289" value="no" style="edgeLabel;html=1;align=center;verticalAlign=middle;resizable=0;points=[];" parent="Skrc7gYkLuCT7zbZgpwp-128" vertex="1" connectable="0">
          <mxGeometry x="-0.6468" y="-1" relative="1" as="geometry">
            <mxPoint as="offset" />
          </mxGeometry>
        </mxCell>
        <mxCell id="Skrc7gYkLuCT7zbZgpwp-119" value="Dictionary&lt;div&gt;film&lt;/div&gt;&lt;div&gt;kosong&lt;/div&gt;" style="rhombus;whiteSpace=wrap;html=1;" parent="WIyWlLk6GJQsqaUBKTNV-1" vertex="1">
          <mxGeometry x="-51" y="1765" width="85" height="84" as="geometry" />
        </mxCell>
        <mxCell id="Skrc7gYkLuCT7zbZgpwp-121" value="OUTPUT&lt;div&gt;Tidak ada film yang tersedia&lt;/div&gt;" style="shape=parallelogram;perimeter=parallelogramPerimeter;whiteSpace=wrap;html=1;fixedSize=1;" parent="WIyWlLk6GJQsqaUBKTNV-1" vertex="1">
          <mxGeometry x="-233.5" y="1777" width="143.5" height="60" as="geometry" />
        </mxCell>
        <mxCell id="Skrc7gYkLuCT7zbZgpwp-127" value="OUTPUT&lt;div&gt;Menampilkan isi Dictionary Film&lt;br&gt;&lt;/div&gt;" style="shape=parallelogram;perimeter=parallelogramPerimeter;whiteSpace=wrap;html=1;fixedSize=1;" parent="WIyWlLk6GJQsqaUBKTNV-1" vertex="1">
          <mxGeometry x="-68.5" y="1879" width="120" height="60" as="geometry" />
        </mxCell>
        <mxCell id="Skrc7gYkLuCT7zbZgpwp-129" value="" style="edgeStyle=orthogonalEdgeStyle;rounded=0;orthogonalLoop=1;jettySize=auto;html=1;" parent="WIyWlLk6GJQsqaUBKTNV-1" source="Skrc7gYkLuCT7zbZgpwp-131" target="Skrc7gYkLuCT7zbZgpwp-132" edge="1">
          <mxGeometry relative="1" as="geometry" />
        </mxCell>
        <mxCell id="Skrc7gYkLuCT7zbZgpwp-291" value="yes" style="edgeLabel;html=1;align=center;verticalAlign=middle;resizable=0;points=[];" parent="Skrc7gYkLuCT7zbZgpwp-129" vertex="1" connectable="0">
          <mxGeometry x="-0.0903" y="1" relative="1" as="geometry">
            <mxPoint as="offset" />
          </mxGeometry>
        </mxCell>
        <mxCell id="Skrc7gYkLuCT7zbZgpwp-130" value="" style="edgeStyle=orthogonalEdgeStyle;rounded=0;orthogonalLoop=1;jettySize=auto;html=1;" parent="WIyWlLk6GJQsqaUBKTNV-1" source="Skrc7gYkLuCT7zbZgpwp-131" target="Skrc7gYkLuCT7zbZgpwp-133" edge="1">
          <mxGeometry relative="1" as="geometry" />
        </mxCell>
        <mxCell id="Skrc7gYkLuCT7zbZgpwp-292" value="no" style="edgeLabel;html=1;align=center;verticalAlign=middle;resizable=0;points=[];" parent="Skrc7gYkLuCT7zbZgpwp-130" vertex="1" connectable="0">
          <mxGeometry x="-0.5014" y="1" relative="1" as="geometry">
            <mxPoint as="offset" />
          </mxGeometry>
        </mxCell>
        <mxCell id="Skrc7gYkLuCT7zbZgpwp-131" value="Dictionary film kosong" style="rhombus;whiteSpace=wrap;html=1;" parent="WIyWlLk6GJQsqaUBKTNV-1" vertex="1">
          <mxGeometry x="-51" y="1962" width="85" height="84" as="geometry" />
        </mxCell>
        <mxCell id="Skrc7gYkLuCT7zbZgpwp-132" value="OUTPUT&lt;div&gt;Tidak ada film yang tersedia&lt;/div&gt;" style="shape=parallelogram;perimeter=parallelogramPerimeter;whiteSpace=wrap;html=1;fixedSize=1;" parent="WIyWlLk6GJQsqaUBKTNV-1" vertex="1">
          <mxGeometry x="-233.5" y="1974" width="143.5" height="60" as="geometry" />
        </mxCell>
        <mxCell id="Skrc7gYkLuCT7zbZgpwp-139" value="" style="edgeStyle=orthogonalEdgeStyle;rounded=0;orthogonalLoop=1;jettySize=auto;html=1;" parent="WIyWlLk6GJQsqaUBKTNV-1" source="Skrc7gYkLuCT7zbZgpwp-133" target="Skrc7gYkLuCT7zbZgpwp-138" edge="1">
          <mxGeometry relative="1" as="geometry" />
        </mxCell>
        <mxCell id="Skrc7gYkLuCT7zbZgpwp-133" value="OUTPUT&lt;div&gt;Menampilkan isi Dictionary film&lt;br&gt;&lt;/div&gt;" style="shape=parallelogram;perimeter=parallelogramPerimeter;whiteSpace=wrap;html=1;fixedSize=1;" parent="WIyWlLk6GJQsqaUBKTNV-1" vertex="1">
          <mxGeometry x="-68.5" y="2081" width="120" height="60" as="geometry" />
        </mxCell>
        <mxCell id="Skrc7gYkLuCT7zbZgpwp-147" value="" style="edgeStyle=orthogonalEdgeStyle;rounded=0;orthogonalLoop=1;jettySize=auto;html=1;" parent="WIyWlLk6GJQsqaUBKTNV-1" source="Skrc7gYkLuCT7zbZgpwp-138" target="Skrc7gYkLuCT7zbZgpwp-146" edge="1">
          <mxGeometry relative="1" as="geometry" />
        </mxCell>
        <mxCell id="Skrc7gYkLuCT7zbZgpwp-138" value="INPUT&lt;div&gt;&amp;nbsp;Pilih film yang ingin diganti&lt;/div&gt;&lt;div&gt;get film&lt;/div&gt;" style="shape=parallelogram;perimeter=parallelogramPerimeter;whiteSpace=wrap;html=1;fixedSize=1;" parent="WIyWlLk6GJQsqaUBKTNV-1" vertex="1">
          <mxGeometry x="-221.75" y="2081" width="120" height="60" as="geometry" />
        </mxCell>
        <mxCell id="Skrc7gYkLuCT7zbZgpwp-145" value="" style="edgeStyle=orthogonalEdgeStyle;rounded=0;orthogonalLoop=1;jettySize=auto;html=1;" parent="WIyWlLk6GJQsqaUBKTNV-1" source="Skrc7gYkLuCT7zbZgpwp-142" target="Skrc7gYkLuCT7zbZgpwp-144" edge="1">
          <mxGeometry relative="1" as="geometry" />
        </mxCell>
        <mxCell id="Skrc7gYkLuCT7zbZgpwp-142" value="INPUT&lt;div&gt;durasi_baru&lt;/div&gt;" style="shape=parallelogram;perimeter=parallelogramPerimeter;whiteSpace=wrap;html=1;fixedSize=1;" parent="WIyWlLk6GJQsqaUBKTNV-1" vertex="1">
          <mxGeometry x="-40" y="2275" width="120" height="60" as="geometry" />
        </mxCell>
        <mxCell id="Skrc7gYkLuCT7zbZgpwp-155" style="edgeStyle=orthogonalEdgeStyle;rounded=0;orthogonalLoop=1;jettySize=auto;html=1;exitX=0;exitY=0.5;exitDx=0;exitDy=0;" parent="WIyWlLk6GJQsqaUBKTNV-1" source="Skrc7gYkLuCT7zbZgpwp-144" target="Skrc7gYkLuCT7zbZgpwp-75" edge="1">
          <mxGeometry relative="1" as="geometry">
            <Array as="points">
              <mxPoint x="-480" y="2305" />
              <mxPoint x="-480" y="1110" />
            </Array>
          </mxGeometry>
        </mxCell>
        <mxCell id="Skrc7gYkLuCT7zbZgpwp-144" value="film nomer &quot;film&quot; berhasil diperbarui" style="shape=parallelogram;perimeter=parallelogramPerimeter;whiteSpace=wrap;html=1;fixedSize=1;" parent="WIyWlLk6GJQsqaUBKTNV-1" vertex="1">
          <mxGeometry x="-360" y="2275" width="120" height="60" as="geometry" />
        </mxCell>
        <mxCell id="Skrc7gYkLuCT7zbZgpwp-150" value="" style="edgeStyle=orthogonalEdgeStyle;rounded=0;orthogonalLoop=1;jettySize=auto;html=1;" parent="WIyWlLk6GJQsqaUBKTNV-1" source="Skrc7gYkLuCT7zbZgpwp-146" target="Skrc7gYkLuCT7zbZgpwp-149" edge="1">
          <mxGeometry relative="1" as="geometry" />
        </mxCell>
        <mxCell id="Skrc7gYkLuCT7zbZgpwp-293" value="yes" style="edgeLabel;html=1;align=center;verticalAlign=middle;resizable=0;points=[];" parent="Skrc7gYkLuCT7zbZgpwp-150" vertex="1" connectable="0">
          <mxGeometry x="-0.1141" relative="1" as="geometry">
            <mxPoint as="offset" />
          </mxGeometry>
        </mxCell>
        <mxCell id="Skrc7gYkLuCT7zbZgpwp-146" value="0&amp;lt;= film &amp;lt; 5" style="rhombus;whiteSpace=wrap;html=1;" parent="WIyWlLk6GJQsqaUBKTNV-1" vertex="1">
          <mxGeometry x="-201.75" y="2161" width="80" height="80" as="geometry" />
        </mxCell>
        <mxCell id="Skrc7gYkLuCT7zbZgpwp-153" value="" style="edgeStyle=orthogonalEdgeStyle;rounded=0;orthogonalLoop=1;jettySize=auto;html=1;" parent="WIyWlLk6GJQsqaUBKTNV-1" source="Skrc7gYkLuCT7zbZgpwp-149" target="Skrc7gYkLuCT7zbZgpwp-142" edge="1">
          <mxGeometry relative="1" as="geometry" />
        </mxCell>
        <mxCell id="Skrc7gYkLuCT7zbZgpwp-149" value="INPUT&lt;div&gt;film_baru&lt;/div&gt;" style="shape=parallelogram;perimeter=parallelogramPerimeter;whiteSpace=wrap;html=1;fixedSize=1;" parent="WIyWlLk6GJQsqaUBKTNV-1" vertex="1">
          <mxGeometry x="-40" y="2171" width="120" height="60" as="geometry" />
        </mxCell>
        <mxCell id="Skrc7gYkLuCT7zbZgpwp-158" style="edgeStyle=orthogonalEdgeStyle;rounded=0;orthogonalLoop=1;jettySize=auto;html=1;exitX=0;exitY=0.5;exitDx=0;exitDy=0;entryX=0;entryY=0.5;entryDx=0;entryDy=0;" parent="WIyWlLk6GJQsqaUBKTNV-1" source="Skrc7gYkLuCT7zbZgpwp-151" target="Skrc7gYkLuCT7zbZgpwp-75" edge="1">
          <mxGeometry relative="1" as="geometry">
            <mxPoint x="-520" y="2289.936170212766" as="targetPoint" />
            <Array as="points">
              <mxPoint x="-480" y="2201" />
              <mxPoint x="-480" y="1110" />
            </Array>
          </mxGeometry>
        </mxCell>
        <mxCell id="Skrc7gYkLuCT7zbZgpwp-151" value="OUTPUT&lt;div&gt;film&lt;/div&gt;&lt;div&gt;&amp;nbsp;tidak ditemukan&lt;/div&gt;" style="shape=parallelogram;perimeter=parallelogramPerimeter;whiteSpace=wrap;html=1;fixedSize=1;" parent="WIyWlLk6GJQsqaUBKTNV-1" vertex="1">
          <mxGeometry x="-360" y="2171" width="120" height="60" as="geometry" />
        </mxCell>
        <mxCell id="Skrc7gYkLuCT7zbZgpwp-159" value="" style="edgeStyle=orthogonalEdgeStyle;rounded=0;orthogonalLoop=1;jettySize=auto;html=1;" parent="WIyWlLk6GJQsqaUBKTNV-1" target="Skrc7gYkLuCT7zbZgpwp-161" edge="1">
          <mxGeometry relative="1" as="geometry">
            <mxPoint x="115" y="2415" as="sourcePoint" />
          </mxGeometry>
        </mxCell>
        <mxCell id="Skrc7gYkLuCT7zbZgpwp-286" value="yes" style="edgeLabel;html=1;align=center;verticalAlign=middle;resizable=0;points=[];" parent="Skrc7gYkLuCT7zbZgpwp-159" vertex="1" connectable="0">
          <mxGeometry x="-0.1289" y="-3" relative="1" as="geometry">
            <mxPoint as="offset" />
          </mxGeometry>
        </mxCell>
        <mxCell id="Skrc7gYkLuCT7zbZgpwp-160" value="" style="edgeStyle=orthogonalEdgeStyle;rounded=0;orthogonalLoop=1;jettySize=auto;html=1;" parent="WIyWlLk6GJQsqaUBKTNV-1" source="Skrc7gYkLuCT7zbZgpwp-161" target="Skrc7gYkLuCT7zbZgpwp-162" edge="1">
          <mxGeometry relative="1" as="geometry" />
        </mxCell>
        <mxCell id="Skrc7gYkLuCT7zbZgpwp-296" value="yes" style="edgeLabel;html=1;align=center;verticalAlign=middle;resizable=0;points=[];" parent="Skrc7gYkLuCT7zbZgpwp-160" vertex="1" connectable="0">
          <mxGeometry x="-0.3647" y="1" relative="1" as="geometry">
            <mxPoint as="offset" />
          </mxGeometry>
        </mxCell>
        <mxCell id="Skrc7gYkLuCT7zbZgpwp-171" style="edgeStyle=orthogonalEdgeStyle;rounded=0;orthogonalLoop=1;jettySize=auto;html=1;exitX=0.5;exitY=1;exitDx=0;exitDy=0;" parent="WIyWlLk6GJQsqaUBKTNV-1" source="Skrc7gYkLuCT7zbZgpwp-161" target="Skrc7gYkLuCT7zbZgpwp-170" edge="1">
          <mxGeometry relative="1" as="geometry" />
        </mxCell>
        <mxCell id="Skrc7gYkLuCT7zbZgpwp-297" value="no" style="edgeLabel;html=1;align=center;verticalAlign=middle;resizable=0;points=[];" parent="Skrc7gYkLuCT7zbZgpwp-171" vertex="1" connectable="0">
          <mxGeometry x="-0.5592" y="3" relative="1" as="geometry">
            <mxPoint as="offset" />
          </mxGeometry>
        </mxCell>
        <mxCell id="Skrc7gYkLuCT7zbZgpwp-161" value="dictionary&amp;nbsp;&lt;div&gt;film kososng&lt;/div&gt;" style="rhombus;whiteSpace=wrap;html=1;" parent="WIyWlLk6GJQsqaUBKTNV-1" vertex="1">
          <mxGeometry x="-51" y="2373" width="85" height="84" as="geometry" />
        </mxCell>
        <mxCell id="vSfFUthJtBwYeIxtWqMm-41" style="edgeStyle=orthogonalEdgeStyle;rounded=0;orthogonalLoop=1;jettySize=auto;html=1;exitX=0;exitY=0.5;exitDx=0;exitDy=0;entryX=0;entryY=0.5;entryDx=0;entryDy=0;" parent="WIyWlLk6GJQsqaUBKTNV-1" source="Skrc7gYkLuCT7zbZgpwp-162" target="Skrc7gYkLuCT7zbZgpwp-75" edge="1">
          <mxGeometry relative="1" as="geometry">
            <Array as="points">
              <mxPoint x="-480" y="2415" />
              <mxPoint x="-480" y="1110" />
            </Array>
          </mxGeometry>
        </mxCell>
        <mxCell id="Skrc7gYkLuCT7zbZgpwp-162" value="OUTPUT&lt;div&gt;Tidak ada film yang tersedia&lt;/div&gt;" style="shape=parallelogram;perimeter=parallelogramPerimeter;whiteSpace=wrap;html=1;fixedSize=1;" parent="WIyWlLk6GJQsqaUBKTNV-1" vertex="1">
          <mxGeometry x="-270" y="2385" width="180" height="60" as="geometry" />
        </mxCell>
        <mxCell id="Skrc7gYkLuCT7zbZgpwp-163" value="mengubah film dan durasi lisensi yang dipilih" style="rounded=1;whiteSpace=wrap;html=1;" parent="WIyWlLk6GJQsqaUBKTNV-1" vertex="1">
          <mxGeometry x="-188.5" y="2275" width="120" height="60" as="geometry" />
        </mxCell>
        <mxCell id="Skrc7gYkLuCT7zbZgpwp-189" style="edgeStyle=orthogonalEdgeStyle;rounded=0;orthogonalLoop=1;jettySize=auto;html=1;exitX=0;exitY=0.5;exitDx=0;exitDy=0;entryX=1;entryY=0.5;entryDx=0;entryDy=0;" parent="WIyWlLk6GJQsqaUBKTNV-1" source="Skrc7gYkLuCT7zbZgpwp-170" target="Skrc7gYkLuCT7zbZgpwp-183" edge="1">
          <mxGeometry relative="1" as="geometry" />
        </mxCell>
        <mxCell id="Skrc7gYkLuCT7zbZgpwp-170" value="OUTPUT&lt;div&gt;Menampilkan isi dictionary film&lt;br&gt;&lt;/div&gt;" style="shape=parallelogram;perimeter=parallelogramPerimeter;whiteSpace=wrap;html=1;fixedSize=1;" parent="WIyWlLk6GJQsqaUBKTNV-1" vertex="1">
          <mxGeometry x="-68.5" y="2488" width="120" height="60" as="geometry" />
        </mxCell>
        <mxCell id="Skrc7gYkLuCT7zbZgpwp-182" value="" style="edgeStyle=orthogonalEdgeStyle;rounded=0;orthogonalLoop=1;jettySize=auto;html=1;" parent="WIyWlLk6GJQsqaUBKTNV-1" source="Skrc7gYkLuCT7zbZgpwp-183" edge="1">
          <mxGeometry relative="1" as="geometry">
            <mxPoint x="-161.69230769230762" y="2568.057692307692" as="targetPoint" />
          </mxGeometry>
        </mxCell>
        <mxCell id="Skrc7gYkLuCT7zbZgpwp-183" value="INPUT&lt;div&gt;&amp;nbsp;Pilih film yang ingin dihapus&lt;/div&gt;&lt;div&gt;get film&lt;/div&gt;" style="shape=parallelogram;perimeter=parallelogramPerimeter;whiteSpace=wrap;html=1;fixedSize=1;" parent="WIyWlLk6GJQsqaUBKTNV-1" vertex="1">
          <mxGeometry x="-221.75" y="2488" width="120" height="60" as="geometry" />
        </mxCell>
        <mxCell id="Skrc7gYkLuCT7zbZgpwp-184" value="" style="edgeStyle=orthogonalEdgeStyle;rounded=0;orthogonalLoop=1;jettySize=auto;html=1;" parent="WIyWlLk6GJQsqaUBKTNV-1" edge="1">
          <mxGeometry relative="1" as="geometry">
            <mxPoint x="-201.75" y="2607.9999999999995" as="sourcePoint" />
            <mxPoint x="-260" y="2607.9999999999995" as="targetPoint" />
          </mxGeometry>
        </mxCell>
        <mxCell id="Skrc7gYkLuCT7zbZgpwp-299" value="no" style="edgeLabel;html=1;align=center;verticalAlign=middle;resizable=0;points=[];" parent="Skrc7gYkLuCT7zbZgpwp-184" vertex="1" connectable="0">
          <mxGeometry x="-0.2162" y="-1" relative="1" as="geometry">
            <mxPoint as="offset" />
          </mxGeometry>
        </mxCell>
        <mxCell id="Skrc7gYkLuCT7zbZgpwp-192" value="" style="edgeStyle=orthogonalEdgeStyle;rounded=0;orthogonalLoop=1;jettySize=auto;html=1;" parent="WIyWlLk6GJQsqaUBKTNV-1" target="Skrc7gYkLuCT7zbZgpwp-191" edge="1">
          <mxGeometry relative="1" as="geometry">
            <mxPoint x="-121.75" y="2607.9999999999995" as="sourcePoint" />
          </mxGeometry>
        </mxCell>
        <mxCell id="Skrc7gYkLuCT7zbZgpwp-298" value="yes" style="edgeLabel;html=1;align=center;verticalAlign=middle;resizable=0;points=[];" parent="Skrc7gYkLuCT7zbZgpwp-192" vertex="1" connectable="0">
          <mxGeometry x="-0.1469" relative="1" as="geometry">
            <mxPoint as="offset" />
          </mxGeometry>
        </mxCell>
        <mxCell id="Skrc7gYkLuCT7zbZgpwp-194" value="" style="edgeStyle=orthogonalEdgeStyle;rounded=0;orthogonalLoop=1;jettySize=auto;html=1;" parent="WIyWlLk6GJQsqaUBKTNV-1" source="Skrc7gYkLuCT7zbZgpwp-191" target="Skrc7gYkLuCT7zbZgpwp-193" edge="1">
          <mxGeometry relative="1" as="geometry" />
        </mxCell>
        <mxCell id="Skrc7gYkLuCT7zbZgpwp-191" value="menghapus film dan durasi lisensi yang dipilih" style="whiteSpace=wrap;html=1;" parent="WIyWlLk6GJQsqaUBKTNV-1" vertex="1">
          <mxGeometry x="-61.75" y="2578" width="120" height="60" as="geometry" />
        </mxCell>
        <mxCell id="vSfFUthJtBwYeIxtWqMm-30" style="edgeStyle=orthogonalEdgeStyle;rounded=0;orthogonalLoop=1;jettySize=auto;html=1;exitX=0;exitY=0.5;exitDx=0;exitDy=0;entryX=0;entryY=0.5;entryDx=0;entryDy=0;" parent="WIyWlLk6GJQsqaUBKTNV-1" source="Skrc7gYkLuCT7zbZgpwp-193" target="Skrc7gYkLuCT7zbZgpwp-75" edge="1">
          <mxGeometry relative="1" as="geometry">
            <mxPoint x="-96.31" y="2736.94" as="sourcePoint" />
            <mxPoint x="374.94" y="1148.94" as="targetPoint" />
            <Array as="points">
              <mxPoint x="-120" y="2698" />
              <mxPoint x="-120" y="2800" />
              <mxPoint x="-480" y="2800" />
              <mxPoint x="-480" y="1110" />
            </Array>
          </mxGeometry>
        </mxCell>
        <mxCell id="Skrc7gYkLuCT7zbZgpwp-193" value="film&lt;div&gt;&amp;nbsp;nomer &quot;item&quot; berhasil dihapus&lt;/div&gt;" style="shape=parallelogram;perimeter=parallelogramPerimeter;whiteSpace=wrap;html=1;fixedSize=1;" parent="WIyWlLk6GJQsqaUBKTNV-1" vertex="1">
          <mxGeometry x="-71.25" y="2668" width="139" height="60" as="geometry" />
        </mxCell>
        <mxCell id="Skrc7gYkLuCT7zbZgpwp-262" style="edgeStyle=orthogonalEdgeStyle;rounded=0;orthogonalLoop=1;jettySize=auto;html=1;exitX=0.438;exitY=1.019;exitDx=0;exitDy=0;entryX=0;entryY=0.5;entryDx=0;entryDy=0;entryPerimeter=0;exitPerimeter=0;" parent="WIyWlLk6GJQsqaUBKTNV-1" source="Skrc7gYkLuCT7zbZgpwp-197" target="Skrc7gYkLuCT7zbZgpwp-259" edge="1">
          <mxGeometry relative="1" as="geometry">
            <mxPoint x="430" y="2390.0000000000005" as="targetPoint" />
            <Array as="points">
              <mxPoint x="320" y="2829" />
              <mxPoint x="320" y="2889" />
            </Array>
          </mxGeometry>
        </mxCell>
        <mxCell id="Skrc7gYkLuCT7zbZgpwp-197" value="anda berhasil keluar dari program" style="shape=parallelogram;perimeter=parallelogramPerimeter;whiteSpace=wrap;html=1;fixedSize=1;" parent="WIyWlLk6GJQsqaUBKTNV-1" vertex="1">
          <mxGeometry x="242" y="2768" width="155" height="60" as="geometry" />
        </mxCell>
        <mxCell id="Skrc7gYkLuCT7zbZgpwp-202" style="edgeStyle=orthogonalEdgeStyle;rounded=0;orthogonalLoop=1;jettySize=auto;html=1;exitX=0;exitY=0.5;exitDx=0;exitDy=0;" parent="WIyWlLk6GJQsqaUBKTNV-1" source="Skrc7gYkLuCT7zbZgpwp-199" target="Skrc7gYkLuCT7zbZgpwp-75" edge="1">
          <mxGeometry relative="1" as="geometry">
            <Array as="points">
              <mxPoint x="-5" y="2798" />
              <mxPoint x="-480" y="2800" />
              <mxPoint x="-480" y="1110" />
            </Array>
          </mxGeometry>
        </mxCell>
        <mxCell id="Skrc7gYkLuCT7zbZgpwp-199" value="pilihan tidak&amp;nbsp;&lt;div&gt;valid&lt;/div&gt;" style="shape=parallelogram;perimeter=parallelogramPerimeter;whiteSpace=wrap;html=1;fixedSize=1;" parent="WIyWlLk6GJQsqaUBKTNV-1" vertex="1">
          <mxGeometry x="-54.25" y="2768" width="105" height="60" as="geometry" />
        </mxCell>
        <mxCell id="Skrc7gYkLuCT7zbZgpwp-206" value="" style="edgeStyle=orthogonalEdgeStyle;rounded=0;orthogonalLoop=1;jettySize=auto;html=1;" parent="WIyWlLk6GJQsqaUBKTNV-1" source="Skrc7gYkLuCT7zbZgpwp-203" target="Skrc7gYkLuCT7zbZgpwp-205" edge="1">
          <mxGeometry relative="1" as="geometry" />
        </mxCell>
        <mxCell id="Skrc7gYkLuCT7zbZgpwp-310" value="yes" style="edgeLabel;html=1;align=center;verticalAlign=middle;resizable=0;points=[];" parent="Skrc7gYkLuCT7zbZgpwp-206" vertex="1" connectable="0">
          <mxGeometry x="-0.2897" y="1" relative="1" as="geometry">
            <mxPoint as="offset" />
          </mxGeometry>
        </mxCell>
        <mxCell id="Skrc7gYkLuCT7zbZgpwp-212" value="" style="edgeStyle=orthogonalEdgeStyle;rounded=0;orthogonalLoop=1;jettySize=auto;html=1;" parent="WIyWlLk6GJQsqaUBKTNV-1" source="Skrc7gYkLuCT7zbZgpwp-203" target="Skrc7gYkLuCT7zbZgpwp-211" edge="1">
          <mxGeometry relative="1" as="geometry" />
        </mxCell>
        <mxCell id="Skrc7gYkLuCT7zbZgpwp-311" value="no" style="edgeLabel;html=1;align=center;verticalAlign=middle;resizable=0;points=[];" parent="Skrc7gYkLuCT7zbZgpwp-212" vertex="1" connectable="0">
          <mxGeometry x="-0.4712" y="-1" relative="1" as="geometry">
            <mxPoint as="offset" />
          </mxGeometry>
        </mxCell>
        <mxCell id="Skrc7gYkLuCT7zbZgpwp-203" value="opsi = 1" style="rhombus;whiteSpace=wrap;html=1;" parent="WIyWlLk6GJQsqaUBKTNV-1" vertex="1">
          <mxGeometry x="634" y="1560" width="80" height="80" as="geometry" />
        </mxCell>
        <mxCell id="Skrc7gYkLuCT7zbZgpwp-208" value="" style="edgeStyle=orthogonalEdgeStyle;rounded=0;orthogonalLoop=1;jettySize=auto;html=1;" parent="WIyWlLk6GJQsqaUBKTNV-1" source="Skrc7gYkLuCT7zbZgpwp-205" target="Skrc7gYkLuCT7zbZgpwp-207" edge="1">
          <mxGeometry relative="1" as="geometry" />
        </mxCell>
        <mxCell id="vSfFUthJtBwYeIxtWqMm-31" value="yes" style="edgeLabel;html=1;align=center;verticalAlign=middle;resizable=0;points=[];" parent="Skrc7gYkLuCT7zbZgpwp-208" vertex="1" connectable="0">
          <mxGeometry x="-0.4513" y="2" relative="1" as="geometry">
            <mxPoint as="offset" />
          </mxGeometry>
        </mxCell>
        <mxCell id="Skrc7gYkLuCT7zbZgpwp-210" value="" style="edgeStyle=orthogonalEdgeStyle;rounded=0;orthogonalLoop=1;jettySize=auto;html=1;" parent="WIyWlLk6GJQsqaUBKTNV-1" source="Skrc7gYkLuCT7zbZgpwp-205" target="Skrc7gYkLuCT7zbZgpwp-209" edge="1">
          <mxGeometry relative="1" as="geometry" />
        </mxCell>
        <mxCell id="vSfFUthJtBwYeIxtWqMm-32" value="no" style="edgeLabel;html=1;align=center;verticalAlign=middle;resizable=0;points=[];" parent="Skrc7gYkLuCT7zbZgpwp-210" vertex="1" connectable="0">
          <mxGeometry x="-0.6428" y="-2" relative="1" as="geometry">
            <mxPoint as="offset" />
          </mxGeometry>
        </mxCell>
        <mxCell id="Skrc7gYkLuCT7zbZgpwp-205" value="dictionary&amp;nbsp;&lt;div&gt;film kosong&lt;/div&gt;" style="rhombus;whiteSpace=wrap;html=1;" parent="WIyWlLk6GJQsqaUBKTNV-1" vertex="1">
          <mxGeometry x="794" y="1560" width="80" height="80" as="geometry" />
        </mxCell>
        <mxCell id="vSfFUthJtBwYeIxtWqMm-33" style="edgeStyle=orthogonalEdgeStyle;rounded=0;orthogonalLoop=1;jettySize=auto;html=1;exitX=1;exitY=0.5;exitDx=0;exitDy=0;entryX=1;entryY=0.5;entryDx=0;entryDy=0;" parent="WIyWlLk6GJQsqaUBKTNV-1" source="Skrc7gYkLuCT7zbZgpwp-207" target="Skrc7gYkLuCT7zbZgpwp-75" edge="1">
          <mxGeometry relative="1" as="geometry">
            <Array as="points">
              <mxPoint x="1400" y="1600" />
              <mxPoint x="1400" y="1110" />
            </Array>
          </mxGeometry>
        </mxCell>
        <mxCell id="Skrc7gYkLuCT7zbZgpwp-207" value="OUTPUT&lt;div&gt;film tidak tersedia&lt;/div&gt;" style="shape=parallelogram;perimeter=parallelogramPerimeter;whiteSpace=wrap;html=1;fixedSize=1;" parent="WIyWlLk6GJQsqaUBKTNV-1" vertex="1">
          <mxGeometry x="904" y="1570" width="120" height="60" as="geometry" />
        </mxCell>
        <mxCell id="Skrc7gYkLuCT7zbZgpwp-209" value="OUTPUT&lt;div&gt;menampilkan isi&lt;/div&gt;&lt;div&gt;&amp;nbsp;dictionary film&lt;/div&gt;" style="shape=parallelogram;perimeter=parallelogramPerimeter;whiteSpace=wrap;html=1;fixedSize=1;" parent="WIyWlLk6GJQsqaUBKTNV-1" vertex="1">
          <mxGeometry x="774" y="1670" width="120" height="60" as="geometry" />
        </mxCell>
        <mxCell id="Skrc7gYkLuCT7zbZgpwp-218" style="edgeStyle=orthogonalEdgeStyle;rounded=0;orthogonalLoop=1;jettySize=auto;html=1;exitX=1;exitY=0.5;exitDx=0;exitDy=0;entryX=0;entryY=0.5;entryDx=0;entryDy=0;" parent="WIyWlLk6GJQsqaUBKTNV-1" source="Skrc7gYkLuCT7zbZgpwp-211" target="Skrc7gYkLuCT7zbZgpwp-216" edge="1">
          <mxGeometry relative="1" as="geometry" />
        </mxCell>
        <mxCell id="Skrc7gYkLuCT7zbZgpwp-303" value="yes" style="edgeLabel;html=1;align=center;verticalAlign=middle;resizable=0;points=[];" parent="Skrc7gYkLuCT7zbZgpwp-218" vertex="1" connectable="0">
          <mxGeometry x="-0.3346" relative="1" as="geometry">
            <mxPoint as="offset" />
          </mxGeometry>
        </mxCell>
        <mxCell id="Skrc7gYkLuCT7zbZgpwp-249" value="" style="edgeStyle=orthogonalEdgeStyle;rounded=0;orthogonalLoop=1;jettySize=auto;html=1;" parent="WIyWlLk6GJQsqaUBKTNV-1" source="Skrc7gYkLuCT7zbZgpwp-211" target="Skrc7gYkLuCT7zbZgpwp-248" edge="1">
          <mxGeometry relative="1" as="geometry" />
        </mxCell>
        <mxCell id="Skrc7gYkLuCT7zbZgpwp-302" value="no" style="edgeLabel;html=1;align=center;verticalAlign=middle;resizable=0;points=[];" parent="Skrc7gYkLuCT7zbZgpwp-249" vertex="1" connectable="0">
          <mxGeometry x="-0.3717" relative="1" as="geometry">
            <mxPoint as="offset" />
          </mxGeometry>
        </mxCell>
        <mxCell id="Skrc7gYkLuCT7zbZgpwp-211" value="opsi = 2" style="rhombus;whiteSpace=wrap;html=1;" parent="WIyWlLk6GJQsqaUBKTNV-1" vertex="1">
          <mxGeometry x="634" y="1739" width="80" height="80" as="geometry" />
        </mxCell>
        <mxCell id="Skrc7gYkLuCT7zbZgpwp-220" style="edgeStyle=orthogonalEdgeStyle;rounded=0;orthogonalLoop=1;jettySize=auto;html=1;exitX=0.5;exitY=1;exitDx=0;exitDy=0;entryX=0.5;entryY=0;entryDx=0;entryDy=0;" parent="WIyWlLk6GJQsqaUBKTNV-1" source="Skrc7gYkLuCT7zbZgpwp-216" target="Skrc7gYkLuCT7zbZgpwp-219" edge="1">
          <mxGeometry relative="1" as="geometry" />
        </mxCell>
        <mxCell id="Skrc7gYkLuCT7zbZgpwp-216" value="LOOP" style="ellipse;whiteSpace=wrap;html=1;" parent="WIyWlLk6GJQsqaUBKTNV-1" vertex="1">
          <mxGeometry x="809" y="1739" width="95" height="80" as="geometry" />
        </mxCell>
        <mxCell id="Skrc7gYkLuCT7zbZgpwp-222" value="" style="edgeStyle=orthogonalEdgeStyle;rounded=0;orthogonalLoop=1;jettySize=auto;html=1;" parent="WIyWlLk6GJQsqaUBKTNV-1" source="Skrc7gYkLuCT7zbZgpwp-219" target="Skrc7gYkLuCT7zbZgpwp-221" edge="1">
          <mxGeometry relative="1" as="geometry" />
        </mxCell>
        <mxCell id="Skrc7gYkLuCT7zbZgpwp-219" value="OUTPUT&lt;div&gt;menampilkan isi&amp;nbsp;&lt;/div&gt;&lt;div&gt;dictionary film&lt;/div&gt;" style="shape=parallelogram;perimeter=parallelogramPerimeter;whiteSpace=wrap;html=1;fixedSize=1;" parent="WIyWlLk6GJQsqaUBKTNV-1" vertex="1">
          <mxGeometry x="796.5" y="1869" width="120" height="60" as="geometry" />
        </mxCell>
        <mxCell id="Skrc7gYkLuCT7zbZgpwp-224" value="" style="edgeStyle=orthogonalEdgeStyle;rounded=0;orthogonalLoop=1;jettySize=auto;html=1;" parent="WIyWlLk6GJQsqaUBKTNV-1" source="Skrc7gYkLuCT7zbZgpwp-221" target="Skrc7gYkLuCT7zbZgpwp-223" edge="1">
          <mxGeometry relative="1" as="geometry" />
        </mxCell>
        <mxCell id="Skrc7gYkLuCT7zbZgpwp-221" value="INPUT&lt;div&gt;film&lt;/div&gt;&lt;div&gt;&amp;nbsp;yang ingin dibeli&lt;/div&gt;&lt;div&gt;get sewaa&lt;/div&gt;" style="shape=parallelogram;perimeter=parallelogramPerimeter;whiteSpace=wrap;html=1;fixedSize=1;" parent="WIyWlLk6GJQsqaUBKTNV-1" vertex="1">
          <mxGeometry x="954" y="1869" width="120" height="60" as="geometry" />
        </mxCell>
        <mxCell id="Skrc7gYkLuCT7zbZgpwp-233" value="" style="edgeStyle=orthogonalEdgeStyle;rounded=0;orthogonalLoop=1;jettySize=auto;html=1;" parent="WIyWlLk6GJQsqaUBKTNV-1" source="Skrc7gYkLuCT7zbZgpwp-223" edge="1">
          <mxGeometry relative="1" as="geometry">
            <mxPoint x="1104" y="1989.5" as="targetPoint" />
          </mxGeometry>
        </mxCell>
        <mxCell id="Skrc7gYkLuCT7zbZgpwp-304" value="yes" style="edgeLabel;html=1;align=center;verticalAlign=middle;resizable=0;points=[];" parent="Skrc7gYkLuCT7zbZgpwp-233" vertex="1" connectable="0">
          <mxGeometry x="-0.0449" y="-2" relative="1" as="geometry">
            <mxPoint x="-8" y="-1" as="offset" />
          </mxGeometry>
        </mxCell>
        <mxCell id="Skrc7gYkLuCT7zbZgpwp-238" value="" style="edgeStyle=orthogonalEdgeStyle;rounded=0;orthogonalLoop=1;jettySize=auto;html=1;" parent="WIyWlLk6GJQsqaUBKTNV-1" source="Skrc7gYkLuCT7zbZgpwp-223" target="Skrc7gYkLuCT7zbZgpwp-237" edge="1">
          <mxGeometry relative="1" as="geometry" />
        </mxCell>
        <mxCell id="Skrc7gYkLuCT7zbZgpwp-305" value="no" style="edgeLabel;html=1;align=center;verticalAlign=middle;resizable=0;points=[];" parent="Skrc7gYkLuCT7zbZgpwp-238" vertex="1" connectable="0">
          <mxGeometry x="0.1496" y="2" relative="1" as="geometry">
            <mxPoint as="offset" />
          </mxGeometry>
        </mxCell>
        <mxCell id="Skrc7gYkLuCT7zbZgpwp-223" value="0 &amp;lt;= beli&amp;nbsp;&lt;span style=&quot;background-color: initial;&quot;&gt;&amp;nbsp;&amp;lt; 5&lt;/span&gt;" style="rhombus;whiteSpace=wrap;html=1;" parent="WIyWlLk6GJQsqaUBKTNV-1" vertex="1">
          <mxGeometry x="974" y="1950" width="80" height="80" as="geometry" />
        </mxCell>
        <mxCell id="Skrc7gYkLuCT7zbZgpwp-242" style="edgeStyle=orthogonalEdgeStyle;rounded=0;orthogonalLoop=1;jettySize=auto;html=1;" parent="WIyWlLk6GJQsqaUBKTNV-1" edge="1">
          <mxGeometry relative="1" as="geometry">
            <Array as="points">
              <mxPoint x="1130" y="2138" />
              <mxPoint x="1404" y="2138" />
              <mxPoint x="1404" y="1777" />
            </Array>
            <mxPoint x="1130" y="1988" as="sourcePoint" />
            <mxPoint x="910" y="1777" as="targetPoint" />
          </mxGeometry>
        </mxCell>
        <mxCell id="Skrc7gYkLuCT7zbZgpwp-241" value="" style="edgeStyle=orthogonalEdgeStyle;rounded=0;orthogonalLoop=1;jettySize=auto;html=1;" parent="WIyWlLk6GJQsqaUBKTNV-1" source="Skrc7gYkLuCT7zbZgpwp-237" target="Skrc7gYkLuCT7zbZgpwp-240" edge="1">
          <mxGeometry relative="1" as="geometry" />
        </mxCell>
        <mxCell id="Skrc7gYkLuCT7zbZgpwp-307" value="no" style="edgeLabel;html=1;align=center;verticalAlign=middle;resizable=0;points=[];" parent="Skrc7gYkLuCT7zbZgpwp-241" vertex="1" connectable="0">
          <mxGeometry x="-0.1805" y="-2" relative="1" as="geometry">
            <mxPoint as="offset" />
          </mxGeometry>
        </mxCell>
        <mxCell id="Skrc7gYkLuCT7zbZgpwp-237" value="beli == -1" style="rhombus;whiteSpace=wrap;html=1;" parent="WIyWlLk6GJQsqaUBKTNV-1" vertex="1">
          <mxGeometry x="864" y="1950.5" width="80" height="79" as="geometry" />
        </mxCell>
        <mxCell id="Skrc7gYkLuCT7zbZgpwp-240" value="OUTPUT&lt;div&gt;&lt;span style=&quot;background-color: initial;&quot;&gt;film&amp;nbsp; tidak ditemukkan, silahkan pilih film yang tersedia&lt;/span&gt;&lt;/div&gt;" style="shape=parallelogram;perimeter=parallelogramPerimeter;whiteSpace=wrap;html=1;fixedSize=1;" parent="WIyWlLk6GJQsqaUBKTNV-1" vertex="1">
          <mxGeometry x="714" y="1954.75" width="120" height="69.5" as="geometry" />
        </mxCell>
        <mxCell id="vSfFUthJtBwYeIxtWqMm-37" style="edgeStyle=orthogonalEdgeStyle;rounded=0;orthogonalLoop=1;jettySize=auto;html=1;entryX=1;entryY=0.5;entryDx=0;entryDy=0;exitX=0.5;exitY=1;exitDx=0;exitDy=0;" parent="WIyWlLk6GJQsqaUBKTNV-1" edge="1" source="Skrc7gYkLuCT7zbZgpwp-237">
          <mxGeometry relative="1" as="geometry">
            <mxPoint x="903" y="2080" as="sourcePoint" />
            <mxPoint x="490.0000000000073" y="1110.0000000000002" as="targetPoint" />
            <Array as="points">
              <mxPoint x="903" y="2030" />
              <mxPoint x="903" y="2120" />
              <mxPoint x="1393" y="2120" />
              <mxPoint x="1393" y="1110" />
            </Array>
          </mxGeometry>
        </mxCell>
        <mxCell id="Skrc7gYkLuCT7zbZgpwp-255" value="" style="edgeStyle=orthogonalEdgeStyle;rounded=0;orthogonalLoop=1;jettySize=auto;html=1;" parent="WIyWlLk6GJQsqaUBKTNV-1" source="Skrc7gYkLuCT7zbZgpwp-248" target="Skrc7gYkLuCT7zbZgpwp-254" edge="1">
          <mxGeometry relative="1" as="geometry" />
        </mxCell>
        <mxCell id="Skrc7gYkLuCT7zbZgpwp-309" value="no" style="edgeLabel;html=1;align=center;verticalAlign=middle;resizable=0;points=[];" parent="Skrc7gYkLuCT7zbZgpwp-255" vertex="1" connectable="0">
          <mxGeometry x="-0.4431" y="3" relative="1" as="geometry">
            <mxPoint as="offset" />
          </mxGeometry>
        </mxCell>
        <mxCell id="Skrc7gYkLuCT7zbZgpwp-257" style="edgeStyle=orthogonalEdgeStyle;rounded=0;orthogonalLoop=1;jettySize=auto;html=1;exitX=0;exitY=0.5;exitDx=0;exitDy=0;entryX=1;entryY=0.5;entryDx=0;entryDy=0;" parent="WIyWlLk6GJQsqaUBKTNV-1" source="Skrc7gYkLuCT7zbZgpwp-248" target="Skrc7gYkLuCT7zbZgpwp-250" edge="1">
          <mxGeometry relative="1" as="geometry" />
        </mxCell>
        <mxCell id="Skrc7gYkLuCT7zbZgpwp-308" value="yes" style="edgeLabel;html=1;align=center;verticalAlign=middle;resizable=0;points=[];" parent="Skrc7gYkLuCT7zbZgpwp-257" vertex="1" connectable="0">
          <mxGeometry x="-0.2802" y="-2" relative="1" as="geometry">
            <mxPoint as="offset" />
          </mxGeometry>
        </mxCell>
        <mxCell id="Skrc7gYkLuCT7zbZgpwp-248" value="opsi = 3" style="rhombus;whiteSpace=wrap;html=1;" parent="WIyWlLk6GJQsqaUBKTNV-1" vertex="1">
          <mxGeometry x="634" y="1859" width="80" height="80" as="geometry" />
        </mxCell>
        <mxCell id="vSfFUthJtBwYeIxtWqMm-39" style="edgeStyle=orthogonalEdgeStyle;rounded=0;orthogonalLoop=1;jettySize=auto;html=1;exitX=0.5;exitY=1;exitDx=0;exitDy=0;entryX=0.5;entryY=0;entryDx=0;entryDy=0;" parent="WIyWlLk6GJQsqaUBKTNV-1" source="Skrc7gYkLuCT7zbZgpwp-250" target="Skrc7gYkLuCT7zbZgpwp-252" edge="1">
          <mxGeometry relative="1" as="geometry" />
        </mxCell>
        <mxCell id="Skrc7gYkLuCT7zbZgpwp-250" value="OUTPUT&lt;div&gt;Anda telah keluar&amp;nbsp;&lt;/div&gt;&lt;div&gt;dari program&lt;/div&gt;" style="shape=parallelogram;perimeter=parallelogramPerimeter;whiteSpace=wrap;html=1;fixedSize=1;" parent="WIyWlLk6GJQsqaUBKTNV-1" vertex="1">
          <mxGeometry x="397" y="1869" width="120" height="60" as="geometry" />
        </mxCell>
        <mxCell id="Skrc7gYkLuCT7zbZgpwp-261" style="edgeStyle=orthogonalEdgeStyle;rounded=0;orthogonalLoop=1;jettySize=auto;html=1;exitX=0.5;exitY=1;exitDx=0;exitDy=0;entryX=0;entryY=0.5;entryDx=0;entryDy=0;entryPerimeter=0;" parent="WIyWlLk6GJQsqaUBKTNV-1" source="Skrc7gYkLuCT7zbZgpwp-252" target="Skrc7gYkLuCT7zbZgpwp-259" edge="1">
          <mxGeometry relative="1" as="geometry" />
        </mxCell>
        <mxCell id="Skrc7gYkLuCT7zbZgpwp-252" value="OUTPUT&lt;div&gt;terima kasih telah mencoba layanan&amp;nbsp;&lt;/div&gt;&lt;div&gt;kami&lt;/div&gt;" style="shape=parallelogram;perimeter=parallelogramPerimeter;whiteSpace=wrap;html=1;fixedSize=1;" parent="WIyWlLk6GJQsqaUBKTNV-1" vertex="1">
          <mxGeometry x="397" y="1964.25" width="120" height="60" as="geometry" />
        </mxCell>
        <mxCell id="Skrc7gYkLuCT7zbZgpwp-256" style="edgeStyle=orthogonalEdgeStyle;rounded=0;orthogonalLoop=1;jettySize=auto;html=1;exitX=0.5;exitY=1;exitDx=0;exitDy=0;" parent="WIyWlLk6GJQsqaUBKTNV-1" source="Skrc7gYkLuCT7zbZgpwp-254" target="Skrc7gYkLuCT7zbZgpwp-75" edge="1">
          <mxGeometry relative="1" as="geometry">
            <Array as="points">
              <mxPoint x="680" y="2089" />
              <mxPoint x="680" y="2170" />
              <mxPoint x="1400" y="2170" />
              <mxPoint x="1400" y="1110" />
            </Array>
          </mxGeometry>
        </mxCell>
        <mxCell id="Skrc7gYkLuCT7zbZgpwp-254" value="OUTPUT&lt;div&gt;pilihan tidak valid&amp;nbsp;&lt;/div&gt;&lt;div&gt;silahkan pilih&lt;/div&gt;&lt;div&gt;opsi yang tersedia&lt;/div&gt;" style="shape=parallelogram;perimeter=parallelogramPerimeter;whiteSpace=wrap;html=1;fixedSize=1;" parent="WIyWlLk6GJQsqaUBKTNV-1" vertex="1">
          <mxGeometry x="614" y="2029" width="120" height="60" as="geometry" />
        </mxCell>
        <mxCell id="Skrc7gYkLuCT7zbZgpwp-259" value="END" style="strokeWidth=2;html=1;shape=mxgraph.flowchart.terminator;whiteSpace=wrap;" parent="WIyWlLk6GJQsqaUBKTNV-1" vertex="1">
          <mxGeometry x="565" y="2860" width="100" height="58.5" as="geometry" />
        </mxCell>
        <mxCell id="Skrc7gYkLuCT7zbZgpwp-271" value="users = []" style="whiteSpace=wrap;html=1;" parent="WIyWlLk6GJQsqaUBKTNV-1" vertex="1">
          <mxGeometry x="70" y="190" width="120" height="30" as="geometry" />
        </mxCell>
        <mxCell id="vSfFUthJtBwYeIxtWqMm-2" value="" style="edgeStyle=orthogonalEdgeStyle;rounded=0;orthogonalLoop=1;jettySize=auto;html=1;" parent="WIyWlLk6GJQsqaUBKTNV-1" source="Skrc7gYkLuCT7zbZgpwp-146" edge="1">
          <mxGeometry relative="1" as="geometry">
            <mxPoint x="-202" y="2201" as="sourcePoint" />
            <mxPoint x="-250" y="2201" as="targetPoint" />
          </mxGeometry>
        </mxCell>
        <mxCell id="vSfFUthJtBwYeIxtWqMm-3" value="no" style="edgeLabel;html=1;align=center;verticalAlign=middle;resizable=0;points=[];" parent="vSfFUthJtBwYeIxtWqMm-2" vertex="1" connectable="0">
          <mxGeometry x="-0.2335" relative="1" as="geometry">
            <mxPoint x="-2" as="offset" />
          </mxGeometry>
        </mxCell>
        <mxCell id="vSfFUthJtBwYeIxtWqMm-4" value="" style="edgeStyle=orthogonalEdgeStyle;rounded=0;orthogonalLoop=1;jettySize=auto;html=1;" parent="WIyWlLk6GJQsqaUBKTNV-1" source="Skrc7gYkLuCT7zbZgpwp-146" edge="1">
          <mxGeometry relative="1" as="geometry">
            <mxPoint x="-202" y="2201" as="sourcePoint" />
            <mxPoint x="-250.00000000000023" y="2200.9999999999995" as="targetPoint" />
            <Array as="points">
              <mxPoint x="-210" y="2201" />
              <mxPoint x="-210" y="2201" />
            </Array>
          </mxGeometry>
        </mxCell>
        <mxCell id="vSfFUthJtBwYeIxtWqMm-18" value="0&amp;lt;= item &amp;lt; 5" style="rhombus;whiteSpace=wrap;html=1;" parent="WIyWlLk6GJQsqaUBKTNV-1" vertex="1">
          <mxGeometry x="-201.75" y="2568" width="80" height="80" as="geometry" />
        </mxCell>
        <mxCell id="vSfFUthJtBwYeIxtWqMm-40" style="edgeStyle=orthogonalEdgeStyle;rounded=0;orthogonalLoop=1;jettySize=auto;html=1;exitX=0;exitY=0.5;exitDx=0;exitDy=0;entryX=0;entryY=0.5;entryDx=0;entryDy=0;" parent="WIyWlLk6GJQsqaUBKTNV-1" source="vSfFUthJtBwYeIxtWqMm-19" target="Skrc7gYkLuCT7zbZgpwp-75" edge="1">
          <mxGeometry relative="1" as="geometry">
            <Array as="points">
              <mxPoint x="-480" y="2608" />
              <mxPoint x="-480" y="1110" />
            </Array>
          </mxGeometry>
        </mxCell>
        <mxCell id="vSfFUthJtBwYeIxtWqMm-19" value="OUTPUT&lt;div&gt;film&lt;/div&gt;&lt;div&gt;&amp;nbsp;tidak ditemukan&lt;/div&gt;" style="shape=parallelogram;perimeter=parallelogramPerimeter;whiteSpace=wrap;html=1;fixedSize=1;" parent="WIyWlLk6GJQsqaUBKTNV-1" vertex="1">
          <mxGeometry x="-370" y="2578" width="120" height="60" as="geometry" />
        </mxCell>
        <mxCell id="vSfFUthJtBwYeIxtWqMm-20" value="" style="edgeStyle=orthogonalEdgeStyle;rounded=0;orthogonalLoop=1;jettySize=auto;html=1;" parent="WIyWlLk6GJQsqaUBKTNV-1" source="vSfFUthJtBwYeIxtWqMm-18" edge="1">
          <mxGeometry relative="1" as="geometry">
            <mxPoint x="-182" y="2737" as="sourcePoint" />
            <mxPoint x="-257.5" y="2608" as="targetPoint" />
          </mxGeometry>
        </mxCell>
        <mxCell id="vSfFUthJtBwYeIxtWqMm-21" value="no" style="edgeLabel;html=1;align=center;verticalAlign=middle;resizable=0;points=[];" parent="vSfFUthJtBwYeIxtWqMm-20" vertex="1" connectable="0">
          <mxGeometry x="-0.2335" relative="1" as="geometry">
            <mxPoint x="-2" as="offset" />
          </mxGeometry>
        </mxCell>
        <mxCell id="Wn0eg4oqcW2VTBxT5pJJ-1" value="menu = 3" style="rhombus;whiteSpace=wrap;html=1;strokeWidth=2;" parent="WIyWlLk6GJQsqaUBKTNV-1" vertex="1">
          <mxGeometry x="517" y="441" width="80" height="80" as="geometry" />
        </mxCell>
        <mxCell id="Wn0eg4oqcW2VTBxT5pJJ-3" style="edgeStyle=orthogonalEdgeStyle;rounded=0;orthogonalLoop=1;jettySize=auto;html=1;entryX=1;entryY=0.5;entryDx=0;entryDy=0;entryPerimeter=0;exitX=0.5;exitY=1;exitDx=0;exitDy=0;" parent="WIyWlLk6GJQsqaUBKTNV-1" source="Wn0eg4oqcW2VTBxT5pJJ-1" edge="1" target="Skrc7gYkLuCT7zbZgpwp-259">
          <mxGeometry relative="1" as="geometry">
            <mxPoint x="560" y="470" as="sourcePoint" />
            <mxPoint x="702" y="2849.25" as="targetPoint" />
            <Array as="points">
              <mxPoint x="557" y="720" />
              <mxPoint x="1520" y="720" />
              <mxPoint x="1520" y="2890" />
              <mxPoint x="702" y="2890" />
            </Array>
          </mxGeometry>
        </mxCell>
        <mxCell id="Wn0eg4oqcW2VTBxT5pJJ-4" value="Yes" style="text;html=1;align=center;verticalAlign=middle;resizable=0;points=[];autosize=1;strokeColor=none;fillColor=none;" parent="WIyWlLk6GJQsqaUBKTNV-1" vertex="1">
          <mxGeometry x="540" y="518" width="40" height="30" as="geometry" />
        </mxCell>
        <mxCell id="V6SdIgqqTNpmigH74lM5-0" value="OUTPUT&lt;div&gt;film yang sewa&lt;span style=&quot;background-color: initial;&quot;&gt;&amp;nbsp;&lt;/span&gt;&lt;/div&gt;&lt;div&gt;adalah &quot;film yang disewa&lt;span style=&quot;background-color: initial;&quot;&gt;&quot;&lt;/span&gt;&lt;/div&gt;" style="shape=parallelogram;perimeter=parallelogramPerimeter;whiteSpace=wrap;html=1;fixedSize=1;" vertex="1" parent="WIyWlLk6GJQsqaUBKTNV-1">
          <mxGeometry x="1090" y="1964.25" width="120" height="60" as="geometry" />
        </mxCell>
        <mxCell id="V6SdIgqqTNpmigH74lM5-1" value="yes&lt;div&gt;&lt;br&gt;&lt;/div&gt;" style="text;html=1;align=center;verticalAlign=middle;resizable=0;points=[];autosize=1;strokeColor=none;fillColor=none;" vertex="1" parent="WIyWlLk6GJQsqaUBKTNV-1">
          <mxGeometry x="880" y="2043" width="40" height="40" as="geometry" />
        </mxCell>
      </root>
    </mxGraphModel>
  </diagram>
</mxfile>
